<svg width="58" height="68" viewBox="0 0 58 68" fill="none" xmlns="http://www.w3.org/2000/svg">
<g id="Pin F 1" clip-path="url(#clip0_1124_996)">
<path id="Vector" fill-rule="evenodd" clip-rule="evenodd" d="M28.9394 66.6358C9.47261 55.7495 0.186272 37.2493 1.38781 10.8955C18.7683 -2.15698 37.1919 -1.5486 56.4911 10.7388C58.652 43.4068 45.5654 57.2059 28.9394 66.6358Z" fill="#D2AB67"/>
<path id="Vector_2" d="M28.9394 66.6358C9.47261 55.7495 0.186272 37.2493 1.38781 10.8955C18.7683 -2.15698 37.1919 -1.5486 56.4911 10.7388C58.652 43.4068 45.5654 57.2059 28.9394 66.6358Z" stroke="#004E95" stroke-width="0.8011" stroke-miterlimit="22.9256"/>
<path id="Vector_3" fill-rule="evenodd" clip-rule="evenodd" d="M29.0047 64.1469C10.8698 54.0073 2.21679 36.7607 3.32519 12.2136C19.532 0.0460911 36.6889 0.608379 54.6748 12.0569C56.6867 42.5035 44.4943 55.3623 29.0047 64.1469Z" fill="#004E95"/>
<path id="Vector_4" fill-rule="evenodd" clip-rule="evenodd" d="M9.7893 45.2135C4.8993 36.263 2.72908 25.2661 3.32519 12.2136C19.532 0.0460911 36.6889 0.608379 54.6748 12.0569L54.1159 12.3243C32.246 11.0706 16.8868 20.7862 7.85193 41.1484C8.47599 42.5311 9.11867 43.8861 9.7893 45.2135Z" fill="#FFD100"/>
<path id="Vector_5" fill-rule="evenodd" clip-rule="evenodd" d="M7.87989 41.0747C4.37772 32.9169 2.85949 23.2658 3.37178 12.0938C19.5693 -0.0737524 36.7355 0.497753 54.7214 11.9463L54.1625 12.2136C53.3522 12.1675 52.5512 12.1399 51.7594 12.1214C35.3663 2.21227 19.6997 2.02791 4.89932 13.1446C4.43361 23.2197 5.72829 31.7647 8.75543 39.1666C8.46669 39.775 8.17794 40.4018 7.89852 41.0286V41.0378L7.87989 41.0747Z" fill="#004E95"/>
<path id="Vector_6" fill-rule="evenodd" clip-rule="evenodd" d="M7.45142 41.9504C7.30239 41.5817 7.15336 39.775 7.00433 39.4063C16.477 19.6617 32.4416 9.44829 54.8518 10.7941L55.2337 11.679L55.2802 12.4164C32.898 11.0891 17.0265 21.0167 7.49799 41.849L7.45142 41.9504Z" fill="#D2AB67"/>
<path id="Vector_7" fill-rule="evenodd" clip-rule="evenodd" d="M33.9226 52.4311H34.4163V51.6844L33.9226 52.4311ZM34.4163 53.2791V52.8275H33.4476V52.4864L34.4908 50.9655H34.8447V52.4311H35.0683V52.8275H34.8447V53.2791H34.4163ZM31.7058 53.2791V53.0026C31.7058 52.9565 31.7058 52.9104 31.7151 52.8643C31.7244 52.8182 31.7338 52.7629 31.7524 52.7168C31.771 52.6707 31.799 52.6247 31.8362 52.5694C31.8735 52.5233 31.92 52.4772 31.9759 52.4403L32.4603 52.0716C32.5068 52.0347 32.5534 51.9978 32.5814 51.9702C32.6093 51.9333 32.6372 51.9057 32.6559 51.878C32.6745 51.8504 32.6838 51.8135 32.6931 51.7766C32.7024 51.7397 32.7024 51.7029 32.7024 51.666C32.7024 51.5646 32.6745 51.4909 32.6186 51.4356C32.5627 51.3803 32.4789 51.3526 32.3764 51.3526C32.3112 51.3526 32.2554 51.3618 32.1995 51.3895C32.1436 51.4079 32.097 51.4356 32.0504 51.4632C32.0039 51.4909 31.9759 51.5185 31.9387 51.5462C31.9107 51.5738 31.8921 51.5923 31.8735 51.6107L31.6592 51.2789C31.6779 51.2604 31.6965 51.2328 31.7431 51.1959C31.7803 51.159 31.8362 51.1222 31.9014 51.0853C31.9666 51.0484 32.0411 51.0115 32.1343 50.9839C32.2274 50.9562 32.3299 50.9378 32.4416 50.9378C32.5534 50.9378 32.6466 50.9562 32.7397 50.9839C32.8328 51.0208 32.9074 51.0668 32.9726 51.1222C33.0378 51.1867 33.0843 51.2512 33.1216 51.3434C33.1588 51.4263 33.1775 51.5185 33.1775 51.6291C33.1775 51.7766 33.1495 51.9057 33.0936 52.0071C33.0378 52.1085 32.9446 52.2099 32.8235 52.2928L32.4696 52.5509C32.4137 52.5878 32.3671 52.6247 32.3299 52.6523C32.2926 52.68 32.2647 52.7076 32.2367 52.7353C32.2088 52.7629 32.1995 52.7814 32.1902 52.809C32.1808 52.8275 32.1715 52.8551 32.1715 52.8828H33.2054V53.2883H31.7058V53.2791ZM30.5881 52.5786V52.1638H31.4357V52.5786H30.5881ZM28.7718 50.9655H30.2342V51.3526C30.1876 51.3895 30.1317 51.4171 30.0758 51.4632C30.0199 51.5001 29.9734 51.5462 29.9175 51.5923C29.8616 51.6384 29.815 51.6844 29.7778 51.7305C29.7312 51.7766 29.6939 51.8227 29.666 51.8688C29.7498 51.8688 29.8336 51.878 29.9175 51.9057C30.0013 51.9333 30.0665 51.9702 30.1317 52.0255C30.1969 52.0808 30.2435 52.1546 30.2807 52.2375C30.318 52.3205 30.3366 52.4311 30.3366 52.5509C30.3366 52.68 30.318 52.7998 30.2714 52.892C30.2248 52.9934 30.169 53.0671 30.0851 53.1316C30.0106 53.1962 29.9175 53.2423 29.815 53.2791C29.7126 53.3068 29.6008 53.3252 29.489 53.3252C29.3214 53.3252 29.1723 53.2976 29.0419 53.2515C28.9115 53.2054 28.7998 53.1409 28.7159 53.0579L28.9115 52.6892C28.9954 52.7629 29.0792 52.8182 29.1723 52.8643C29.2655 52.9104 29.3679 52.9288 29.4797 52.9288C29.5356 52.9288 29.5822 52.9196 29.638 52.9104C29.6846 52.9012 29.7312 52.8735 29.7684 52.8459C29.8057 52.8182 29.8336 52.7814 29.8616 52.7261C29.8802 52.68 29.8988 52.6247 29.8988 52.5509C29.8988 52.4127 29.8523 52.3113 29.7684 52.2559C29.6753 52.2006 29.5542 52.1638 29.4052 52.1638C29.3772 52.1638 29.34 52.1638 29.3027 52.1638C29.2655 52.1638 29.2375 52.173 29.2003 52.173V51.8872C29.2189 51.8504 29.2468 51.8043 29.2841 51.7582C29.3214 51.7121 29.3586 51.666 29.3959 51.6107C29.4424 51.5646 29.4797 51.5185 29.5263 51.4632C29.5728 51.4171 29.6194 51.371 29.666 51.3342H28.7718V50.9655ZM27.0114 53.2791V53.0026C27.0114 52.9565 27.0114 52.9104 27.0207 52.8643C27.03 52.8182 27.0394 52.7629 27.058 52.7168C27.0766 52.6707 27.1046 52.6247 27.1418 52.5694C27.1791 52.5233 27.2256 52.4772 27.2815 52.4403L27.7659 52.0716C27.8124 52.0347 27.859 51.9978 27.887 51.9702C27.9149 51.9333 27.9428 51.9057 27.9615 51.878C27.9801 51.8504 27.9894 51.8135 27.9987 51.7766C28.008 51.7397 28.008 51.7029 28.008 51.666C28.008 51.5646 27.9801 51.4909 27.9242 51.4356C27.8683 51.3803 27.7845 51.3526 27.682 51.3526C27.6168 51.3526 27.561 51.3618 27.5051 51.3895C27.4492 51.4079 27.4026 51.4356 27.356 51.4632C27.3095 51.4909 27.2722 51.5185 27.2443 51.5462C27.2163 51.5738 27.1977 51.5923 27.1791 51.6107L26.9648 51.2789C26.9742 51.2604 27.0021 51.2328 27.0487 51.1959C27.0859 51.159 27.1418 51.1222 27.207 51.0853C27.2722 51.0484 27.3467 51.0115 27.4399 50.9839C27.533 50.9562 27.6355 50.9378 27.7472 50.9378C27.859 50.9378 27.9522 50.9562 28.0453 50.9839C28.1384 51.0208 28.213 51.0668 28.2782 51.1222C28.3434 51.1867 28.3899 51.2512 28.4272 51.3434C28.4644 51.4263 28.4831 51.5185 28.4831 51.6291C28.4831 51.7766 28.4551 51.9057 28.3992 52.0071C28.3434 52.1085 28.2502 52.2099 28.1291 52.2928L27.7752 52.5509C27.7193 52.5878 27.6727 52.6247 27.6355 52.6523C27.5982 52.68 27.5703 52.7076 27.5423 52.7353C27.5144 52.7629 27.5051 52.7814 27.4958 52.809C27.4864 52.8275 27.4771 52.8551 27.4771 52.8828H28.511V53.2883H27.0114V53.2791ZM26.3501 52.1269C26.3501 52.0163 26.3408 51.9149 26.3315 51.8135C26.3222 51.7213 26.2942 51.6384 26.2663 51.5646C26.2383 51.4909 26.1918 51.4356 26.1452 51.3987C26.0986 51.3526 26.0427 51.3342 25.9775 51.3342C25.9123 51.3342 25.8564 51.3526 25.8006 51.3987C25.754 51.4448 25.7167 51.5001 25.6795 51.5646C25.6515 51.6384 25.6236 51.7213 25.6143 51.8135C25.605 51.9057 25.5956 52.0163 25.5956 52.1269C25.5956 52.2375 25.605 52.3389 25.6143 52.4403C25.6329 52.5325 25.6515 52.6247 25.6795 52.6892C25.7074 52.7629 25.7447 52.8182 25.8006 52.8643C25.8471 52.9104 25.903 52.9288 25.9775 52.9288C26.0427 52.9288 26.0986 52.9104 26.1452 52.8643C26.1918 52.8182 26.229 52.7629 26.2663 52.6892C26.2942 52.6154 26.3222 52.5325 26.3315 52.4403C26.3408 52.3389 26.3501 52.2375 26.3501 52.1269ZM26.7972 52.1361C26.7972 52.2744 26.7879 52.4127 26.7506 52.5601C26.7227 52.6984 26.6761 52.8275 26.6109 52.9473C26.5457 53.0579 26.4619 53.1593 26.3501 53.233C26.2476 53.3068 26.1079 53.3437 25.9589 53.3437C25.8006 53.3437 25.6702 53.3068 25.5584 53.233C25.4466 53.1593 25.3628 53.0671 25.2976 52.9473C25.2324 52.8367 25.1858 52.7076 25.1579 52.5601C25.1299 52.4219 25.1113 52.2744 25.1113 52.1361C25.1113 51.9978 25.1206 51.8596 25.1579 51.7121C25.1858 51.5738 25.2324 51.4448 25.2976 51.3249C25.3628 51.2143 25.4466 51.1129 25.5584 51.0484C25.6702 50.9747 25.8006 50.9378 25.9589 50.9378C26.1172 50.9378 26.2476 50.9747 26.3501 51.0484C26.4526 51.1222 26.5457 51.2143 26.6109 51.3249C26.6761 51.4356 26.7227 51.5646 26.7506 51.7121C26.7879 51.8504 26.7972 51.9886 26.7972 52.1361ZM23.4161 53.2791V53.0026C23.4161 52.9565 23.4161 52.9104 23.4254 52.8643C23.4347 52.8182 23.444 52.7629 23.4627 52.7168C23.4813 52.6707 23.5092 52.6247 23.5465 52.5694C23.5838 52.5233 23.6303 52.4772 23.6862 52.4403L24.1706 52.0716C24.2171 52.0347 24.2637 51.9978 24.2916 51.9702C24.3196 51.9333 24.3475 51.9057 24.3662 51.878C24.3848 51.8504 24.3941 51.8135 24.4034 51.7766C24.4127 51.7397 24.4127 51.7029 24.4127 51.666C24.4127 51.5646 24.3848 51.4909 24.3289 51.4356C24.273 51.3803 24.1892 51.3526 24.0867 51.3526C24.0215 51.3526 23.9656 51.3618 23.9098 51.3895C23.8539 51.4079 23.8073 51.4356 23.7607 51.4632C23.7142 51.4909 23.6769 51.5185 23.649 51.5462C23.621 51.5738 23.6024 51.5923 23.5838 51.6107L23.3695 51.2789C23.3882 51.2604 23.4068 51.2328 23.4534 51.1959C23.4906 51.159 23.5465 51.1222 23.6117 51.0853C23.6769 51.0484 23.7514 51.0115 23.8446 50.9839C23.9377 50.9562 24.0402 50.9378 24.1519 50.9378C24.2637 50.9378 24.3662 50.9562 24.45 50.9839C24.5431 51.0208 24.6176 51.0668 24.6828 51.1222C24.748 51.1867 24.7946 51.2512 24.8319 51.3434C24.8691 51.4263 24.8878 51.5185 24.8878 51.6291C24.8878 51.7766 24.8598 51.9057 24.8039 52.0071C24.748 52.1085 24.6549 52.2099 24.5338 52.2928L24.1799 52.5509C24.124 52.5878 24.0774 52.6247 24.0402 52.6523C24.0029 52.68 23.975 52.7076 23.947 52.7353C23.9191 52.7629 23.9098 52.7814 23.9004 52.809C23.8911 52.8275 23.8818 52.8551 23.8818 52.8828H24.9157V53.2883H23.4161V53.2791ZM34.4256 49.1956H35.0496L34.7423 48.2831L34.4256 49.1956ZM33.6711 50.0529L34.5094 47.7392H34.9565L35.8041 50.0529H35.3477L35.1893 49.592H34.2952L34.1368 50.0529H33.6711ZM32.4323 49.38C32.4323 49.2878 32.4044 49.2141 32.3485 49.1495C32.2926 49.085 32.2088 49.0481 32.1063 49.0481C32.0039 49.0481 31.9294 49.0758 31.8735 49.1403C31.8176 49.2048 31.7896 49.2786 31.7896 49.3615C31.7896 49.4076 31.799 49.4445 31.8083 49.4906C31.8176 49.5275 31.8455 49.5643 31.8735 49.592C31.9014 49.6196 31.9387 49.6473 31.9759 49.6657C32.0132 49.6842 32.0598 49.6934 32.1156 49.6934C32.2181 49.6934 32.3019 49.6565 32.3578 49.592C32.4044 49.5459 32.4323 49.4722 32.4323 49.38ZM32.3951 48.3845C32.3951 48.3476 32.3858 48.3107 32.3764 48.2831C32.3671 48.2462 32.3485 48.2185 32.3206 48.1909C32.2926 48.1632 32.2647 48.1448 32.2274 48.1264C32.1902 48.1079 32.1529 48.0987 32.1063 48.0987C32.0598 48.0987 32.0225 48.1079 31.9852 48.1264C31.948 48.1448 31.92 48.1632 31.8921 48.1909C31.8642 48.2185 31.8455 48.2462 31.8362 48.2831C31.8269 48.3199 31.8176 48.3568 31.8176 48.3845C31.8176 48.4213 31.8269 48.4582 31.8362 48.4951C31.8455 48.5319 31.8642 48.5688 31.8921 48.5965C31.92 48.6241 31.948 48.6518 31.9852 48.6702C32.0225 48.6886 32.0598 48.6979 32.1063 48.6979C32.1529 48.6979 32.1902 48.6886 32.2274 48.6702C32.2647 48.6518 32.2926 48.6241 32.3206 48.5965C32.3485 48.5688 32.3671 48.5319 32.3764 48.4951C32.3858 48.4582 32.3951 48.4213 32.3951 48.3845ZM32.8701 49.3984C32.8701 49.4906 32.8515 49.5736 32.8142 49.6565C32.777 49.7395 32.7304 49.8132 32.6652 49.8777C32.6 49.9423 32.5255 49.9976 32.423 50.0344C32.3299 50.0713 32.2181 50.099 32.097 50.099C31.9759 50.099 31.8642 50.0805 31.771 50.0437C31.6779 50.0068 31.594 49.9515 31.5288 49.887C31.4636 49.8224 31.4171 49.7487 31.3798 49.6657C31.3426 49.5828 31.3332 49.4998 31.3332 49.4076C31.3332 49.3615 31.3426 49.3062 31.3519 49.2601C31.3612 49.2141 31.3798 49.1588 31.4078 49.1127C31.4357 49.0666 31.4636 49.0205 31.5009 48.9744C31.5382 48.9283 31.5754 48.9007 31.622 48.873C31.5288 48.8085 31.473 48.7255 31.4264 48.6426C31.3891 48.5504 31.3705 48.4674 31.3705 48.3845C31.3705 48.3015 31.3891 48.2185 31.4171 48.1356C31.4543 48.0526 31.5009 47.9881 31.5661 47.9236C31.6313 47.859 31.7058 47.813 31.799 47.7761C31.8921 47.7392 31.9946 47.7208 32.1063 47.7208C32.2181 47.7208 32.3206 47.7392 32.4044 47.7761C32.4975 47.813 32.572 47.859 32.6372 47.9236C32.7024 47.9881 32.749 48.0526 32.7863 48.1356C32.8235 48.2093 32.8422 48.2923 32.8422 48.3845C32.8422 48.4674 32.8235 48.5596 32.777 48.6518C32.7304 48.7439 32.6745 48.8269 32.5907 48.8822C32.6838 48.9375 32.7583 49.0205 32.8049 49.1219C32.8515 49.2048 32.8701 49.3062 32.8701 49.3984ZM30.2621 50.0529V48.2923L29.843 48.5596L29.638 48.2278L30.3739 47.7669H30.7185V50.0621H30.2621V50.0529ZM27.7286 47.7392H29.191V48.1264C29.1444 48.1632 29.0885 48.1909 29.0326 48.237C28.9767 48.2738 28.9302 48.3199 28.8743 48.366C28.8184 48.4121 28.7718 48.4582 28.7346 48.5043C28.688 48.5504 28.6507 48.5965 28.6228 48.6426C28.7066 48.6426 28.7904 48.6518 28.8743 48.6794C28.9581 48.7071 29.0233 48.7439 29.0885 48.7993C29.1537 48.8546 29.2003 48.9283 29.2375 49.0113C29.2748 49.0942 29.2934 49.2048 29.2934 49.3247C29.2934 49.4537 29.2748 49.5736 29.2282 49.6657C29.1816 49.7671 29.1258 49.8409 29.0419 49.9146C28.9674 49.9791 28.8743 50.0252 28.7718 50.0621C28.6694 50.099 28.5576 50.1082 28.4458 50.1082C28.2782 50.1082 28.1291 50.0805 27.9987 50.0344C27.8683 49.9884 27.7566 49.9238 27.6727 49.8409L27.8683 49.4722C27.9522 49.5459 28.036 49.6012 28.1291 49.6473C28.2223 49.6934 28.3247 49.7118 28.4365 49.7118C28.4924 49.7118 28.539 49.7026 28.5948 49.6934C28.6414 49.6842 28.688 49.6565 28.7252 49.6289C28.7625 49.6012 28.7904 49.5643 28.8184 49.509C28.837 49.4629 28.8556 49.4076 28.8556 49.3339C28.8556 49.1956 28.8091 49.0942 28.7252 49.0389C28.6321 48.9836 28.511 48.9467 28.362 48.9467C28.334 48.9467 28.2968 48.9467 28.2595 48.9467C28.2223 48.9467 28.1943 48.956 28.1571 48.956V48.6702C28.1757 48.6333 28.2036 48.5872 28.2409 48.5412C28.2782 48.4951 28.3154 48.449 28.3527 48.3937C28.3992 48.3476 28.4365 48.3015 28.4831 48.2462C28.5296 48.2001 28.5762 48.154 28.6228 48.1171H27.7286V47.7392ZM26.7786 49.9515C26.7599 49.9607 26.732 49.9791 26.6854 49.9976C26.6482 50.016 26.5923 50.0344 26.5271 50.0437C26.4619 50.0621 26.3874 50.0713 26.3035 50.0898C26.2197 50.099 26.1172 50.1082 26.0055 50.1082C25.8564 50.1082 25.7167 50.0805 25.5863 50.0252C25.4559 49.9699 25.3535 49.8962 25.2603 49.7948C25.1672 49.6934 25.102 49.5643 25.0461 49.4169C24.9995 49.2694 24.9716 49.1034 24.9716 48.9099C24.9716 48.6979 24.9995 48.5227 25.0554 48.366C25.1113 48.2185 25.1858 48.0895 25.2696 47.9881C25.3628 47.8867 25.4652 47.8129 25.5863 47.7669C25.7074 47.7208 25.8285 47.6931 25.9589 47.6931C26.1638 47.6931 26.3222 47.73 26.4526 47.8037C26.583 47.8775 26.6761 47.9789 26.7413 48.0895L26.4339 48.366C26.4153 48.3384 26.3967 48.3015 26.3687 48.2738C26.3408 48.237 26.3128 48.2093 26.2663 48.1817C26.229 48.154 26.1824 48.1356 26.1266 48.1171C26.0707 48.0987 26.0148 48.0895 25.9496 48.0895C25.8844 48.0895 25.8192 48.1079 25.754 48.1356C25.6888 48.1724 25.6329 48.2185 25.5863 48.2831C25.5398 48.3476 25.4932 48.4305 25.4652 48.5319C25.4373 48.6333 25.4187 48.7532 25.4187 48.8914C25.4187 49.0205 25.4373 49.1311 25.4652 49.2233C25.4932 49.3247 25.5398 49.3984 25.5863 49.4722C25.6422 49.5367 25.6981 49.592 25.7726 49.6289C25.8471 49.6657 25.931 49.6842 26.0148 49.6842C26.1079 49.6842 26.1824 49.675 26.2383 49.6657C26.2942 49.6565 26.3315 49.6473 26.3408 49.6473V49.2325H25.9868V48.8361H26.7692V49.9515H26.7786ZM24.2171 48.9007C24.2171 48.7716 24.1985 48.6426 24.1426 48.5319C24.096 48.4121 24.0215 48.3291 23.9284 48.2646C23.8725 48.2278 23.8166 48.2001 23.7328 48.1909C23.6583 48.1724 23.5838 48.1632 23.5092 48.1632H23.3136V49.6381H23.4999C23.6583 49.6381 23.7887 49.6104 23.9004 49.5551C24.0029 49.4998 24.0867 49.4076 24.1333 49.2878C24.1985 49.168 24.2171 49.0389 24.2171 48.9007ZM24.6735 48.8822C24.6735 48.9928 24.6642 49.0942 24.6363 49.2048C24.6176 49.3062 24.5804 49.4076 24.5338 49.4998C24.4872 49.592 24.422 49.675 24.3568 49.7487C24.2823 49.8224 24.1985 49.887 24.1054 49.9331C23.9377 50.016 23.7607 50.0529 23.5558 50.0529H22.8759V47.7392H23.5372C23.621 47.7392 23.7142 47.7484 23.8166 47.7576C23.9191 47.7761 24.0215 47.8037 24.1147 47.8406C24.2078 47.8867 24.2916 47.942 24.3662 48.0157C24.4407 48.0895 24.4966 48.1724 24.5431 48.2646C24.5897 48.3568 24.627 48.4582 24.6456 48.5596C24.6642 48.6702 24.6735 48.7716 24.6735 48.8822ZM45.2208 44.1074H45.5096C45.6679 44.1074 45.7704 44.0797 45.8356 44.0244C45.9008 43.9691 45.9287 43.8862 45.9287 43.7755C45.9287 43.6649 45.9008 43.5727 45.8356 43.5174C45.7704 43.4621 45.6679 43.4345 45.5096 43.4345H45.2115V44.1074H45.2208ZM44.4477 45.785V42.7616H45.6493C45.8915 42.7616 46.0871 42.8077 46.2547 42.8998C46.4224 42.992 46.5435 43.1026 46.6087 43.2501C46.6739 43.3884 46.7111 43.5451 46.7111 43.7018C46.7111 43.9046 46.6645 44.0613 46.5714 44.1903C46.4783 44.3102 46.3572 44.4024 46.2175 44.4669C46.3292 44.5037 46.4131 44.5591 46.4689 44.6328C46.5248 44.7158 46.5714 44.8264 46.618 44.9831L46.8415 45.785H46.0591L45.8728 45.1306C45.8356 44.9831 45.789 44.8817 45.7238 44.8264C45.6586 44.7803 45.5748 44.7526 45.4723 44.7526H45.2208V45.785H44.4477ZM42.3707 44.642H42.9854L42.678 43.6188L42.3707 44.642ZM41.1971 45.785L42.3055 42.7616H43.0785L44.1776 45.785H43.358L43.1717 45.2688H42.1937L42.0074 45.785H41.1971ZM39.0734 45.8035L38.5052 44.1074L38.44 45.785H37.6949L37.8346 42.7616H38.7008L39.3528 44.7803L39.9583 42.7616H40.8152L40.9828 45.785H40.2563L40.1445 44.0982L39.6323 45.8035H39.0734ZM35.9438 45.8496C35.7575 45.8496 35.5806 45.8219 35.4315 45.7666C35.2732 45.7113 35.1428 45.6375 35.0403 45.5361C34.9285 45.4347 34.8447 45.3149 34.7888 45.1766C34.733 45.0384 34.6957 44.8725 34.6957 44.6881V42.7524H35.4781V44.642C35.4781 44.8079 35.5154 44.9278 35.5992 45.0199C35.683 45.1029 35.7948 45.149 35.9438 45.149C36.0928 45.149 36.2046 45.1029 36.2884 45.0199C36.3723 44.937 36.4095 44.8079 36.4095 44.642V42.7524H37.1919V44.6881C37.1919 44.8725 37.164 45.0292 37.0988 45.1766C37.0429 45.3149 36.9591 45.4347 36.8473 45.5361C36.7355 45.6375 36.6051 45.7113 36.4468 45.7666C36.2978 45.8219 36.1301 45.8496 35.9438 45.8496ZM31.8735 45.785V42.7616H32.6559V43.9415H32.8515C32.9074 43.9415 32.9632 43.923 33.0098 43.8954C33.0564 43.8677 33.103 43.8032 33.1402 43.6926L33.4848 42.7616H34.3511L33.8947 43.8216C33.8481 43.923 33.8015 44.006 33.7363 44.0613C33.6711 44.1166 33.6059 44.1627 33.5314 44.1811C33.6246 44.218 33.6898 44.2641 33.755 44.3286C33.8108 44.3931 33.8667 44.4761 33.904 44.5867L34.4069 45.7758H33.5314L33.2334 44.9831C33.1868 44.8632 33.1402 44.7711 33.0936 44.7158C33.0471 44.6604 32.9819 44.6328 32.8887 44.6328H32.6559V45.7758H31.8735V45.785ZM29.8057 44.642H30.4204L30.1131 43.6188L29.8057 44.642ZM28.6228 45.785L29.7312 42.7616H30.5043L31.6034 45.785H30.7837L30.5974 45.2688H29.6287L29.4424 45.785H28.6228ZM27.2815 45.785V44.6051L26.2476 42.7616H27.1325L27.682 43.8216L28.2036 42.7616H29.0792L28.0546 44.6051V45.785H27.2815ZM24.5059 45.785V44.6051L23.472 42.7616H24.3568L24.9064 43.8216L25.428 42.7616H26.3035L25.279 44.6051V45.785H24.5059ZM22.14 44.642H22.7548L22.4474 43.6188L22.14 44.642ZM20.9571 45.785L22.0655 42.7616H22.8386L23.9377 45.785H23.118L22.9318 45.2688H21.9631L21.7768 45.785H20.9571ZM19.8022 45.8496C19.6625 45.8496 19.5134 45.8311 19.3458 45.8035C19.1967 45.7758 19.085 45.7389 19.0198 45.7021L19.1967 45.0476C19.2806 45.0937 19.3644 45.1213 19.4389 45.1398C19.5134 45.1582 19.5879 45.1674 19.6718 45.1674C19.7742 45.1674 19.8581 45.1398 19.9139 45.0845C19.9698 45.0292 19.9978 44.937 19.9978 44.7895V42.7616H20.7895V44.9554C20.7895 45.2504 20.7057 45.4808 20.5287 45.6283C20.3331 45.7758 20.0909 45.8496 19.8022 45.8496ZM17.1569 44.642H17.7717L17.4643 43.6188L17.1569 44.642ZM15.974 45.785L17.0824 42.7616H17.8555L18.9546 45.785H18.1349L17.9486 45.2688H16.9799L16.7937 45.785H15.974ZM14.7445 45.8311C14.6234 45.8311 14.5303 45.7942 14.4558 45.7297C14.3813 45.656 14.3533 45.573 14.3533 45.4624C14.3533 45.3518 14.3906 45.2596 14.4558 45.1951C14.5303 45.1213 14.6234 45.0845 14.7445 45.0845C14.8563 45.0845 14.9494 45.1213 15.0239 45.1951C15.0985 45.2688 15.1264 45.361 15.1264 45.4624C15.1264 45.573 15.0891 45.656 15.0239 45.7297C14.9587 45.7942 14.8656 45.8311 14.7445 45.8311ZM12.5743 43.9599H12.8351C12.9375 43.9599 13.0214 43.9415 13.0773 43.9138C13.1331 43.8769 13.1704 43.8401 13.1797 43.794C13.1983 43.7479 13.1983 43.711 13.1983 43.6741C13.1983 43.5543 13.1425 43.4713 13.0214 43.416C12.9934 43.4068 12.9655 43.3976 12.9189 43.3976C12.8723 43.3976 12.8351 43.3884 12.7978 43.3884H12.5743V43.9599ZM12.5743 45.1398H12.9469C13.0679 45.1398 13.1611 45.1213 13.217 45.0845C13.3008 45.0292 13.3381 44.9554 13.3381 44.854C13.3381 44.7987 13.3287 44.7526 13.3008 44.7065C13.2729 44.6604 13.2449 44.6236 13.1983 44.5959C13.1331 44.5591 13.0493 44.5498 12.9469 44.5498H12.5743V45.1398ZM11.8105 45.785V42.7616H12.9655C13.189 42.7616 13.3753 42.7984 13.543 42.8814C13.7013 42.9551 13.8131 43.0565 13.8783 43.1856C13.9435 43.3146 13.9714 43.4345 13.9714 43.5727C13.9714 43.7387 13.9342 43.8769 13.8597 43.9691C13.7851 44.0613 13.692 44.1442 13.5989 44.1996C13.7758 44.2641 13.9062 44.3563 13.9901 44.4945C14.0832 44.6328 14.1298 44.7711 14.1298 44.9278C14.1298 45.1121 14.0832 45.2688 13.9901 45.4071C13.8969 45.5454 13.7572 45.6468 13.5802 45.7205C13.515 45.7482 13.4405 45.7666 13.366 45.7758C13.2915 45.785 13.2077 45.7942 13.1238 45.7942H11.8105V45.785ZM31.2867 41.9781V39.7473H31.9573L31.9852 39.9409C32.0598 39.8764 32.1436 39.8211 32.246 39.775C32.3485 39.7289 32.4789 39.7013 32.6093 39.7013C32.8515 39.7013 33.0378 39.775 33.1868 39.9133C33.3358 40.0515 33.4103 40.2728 33.4103 40.5677V41.9781H32.6372V40.6599C32.6372 40.5401 32.6093 40.4479 32.5627 40.3926C32.5162 40.3281 32.4416 40.3004 32.3578 40.3004C32.2926 40.3004 32.2274 40.3188 32.1808 40.3465C32.125 40.3742 32.0784 40.411 32.0411 40.4479V41.9965H31.2867V41.9781ZM29.7778 41.4434C29.9082 41.4434 30.0013 41.3881 30.0572 41.2867C30.1131 41.1761 30.141 41.0378 30.141 40.8535C30.141 40.6783 30.1131 40.5401 30.0479 40.4387C29.9827 40.3373 29.8988 40.282 29.7778 40.282C29.6567 40.282 29.5728 40.3373 29.5076 40.4387C29.4424 40.5401 29.4145 40.6783 29.4145 40.8535C29.4145 41.0378 29.4424 41.1761 29.5076 41.2867C29.5635 41.3973 29.6567 41.4434 29.7778 41.4434ZM29.7778 42.0241C29.6008 42.0241 29.4424 41.9965 29.3027 41.932C29.163 41.8767 29.0512 41.7937 28.9488 41.6923C28.8556 41.5909 28.7811 41.4619 28.7252 41.3236C28.6787 41.1761 28.6507 41.0194 28.6507 40.8535C28.6507 40.6046 28.7066 40.3834 28.8184 40.199C28.9302 40.0147 29.0699 39.8856 29.2375 39.8119C29.4052 39.7381 29.5822 39.7013 29.7684 39.7013C30.0292 39.7013 30.2435 39.7658 30.4204 39.8856C30.5974 40.0054 30.7185 40.1529 30.7837 40.3373C30.8582 40.5216 30.8862 40.6876 30.8862 40.8535C30.8862 41.0194 30.8582 41.1761 30.8116 41.3236C30.7651 41.4711 30.6906 41.5909 30.5881 41.6923C30.495 41.7937 30.3739 41.8767 30.2342 41.932C30.1131 41.9965 29.9547 42.0241 29.7778 42.0241ZM27.887 39.5722C27.7566 39.5722 27.6634 39.5445 27.5889 39.48C27.5237 39.4155 27.4864 39.3325 27.4864 39.2219C27.4864 39.1205 27.5237 39.0376 27.5889 38.9638C27.6541 38.8901 27.7566 38.8624 27.887 38.8624C28.0174 38.8624 28.1105 38.8993 28.185 38.9638C28.2502 39.0376 28.2875 39.1205 28.2875 39.2219C28.2875 39.3233 28.2502 39.4155 28.185 39.48C28.1105 39.5445 28.0174 39.5722 27.887 39.5722ZM27.5051 41.9781V39.7473H28.2688V41.9781H27.5051ZM25.074 41.9781V38.9546H25.8564V41.2775H27.1604V41.9781H25.074Z" fill="#FFD100"/>
<path id="Vector_8" fill-rule="evenodd" clip-rule="evenodd" d="M38.8498 35.7468V33.1197H40.5823V33.599H39.3621V34.1982H40.3774V34.6775H39.3621V35.2767H40.6754V35.756H38.8498V35.7468ZM37.1546 35.7468L36.1766 33.1197H36.7262L37.3968 35.1108L38.0581 33.1197H38.5611L37.6297 35.7468H37.1546ZM35.5246 33.9493C35.5246 33.8203 35.4874 33.7281 35.4129 33.6636C35.3384 33.599 35.2266 33.5714 35.0682 33.5714H34.7143V34.2996H35.0682C35.3663 34.3088 35.5246 34.189 35.5246 33.9493ZM35.655 34.5577C35.7296 34.5853 35.7854 34.6314 35.832 34.7052C35.8786 34.7697 35.9252 34.8803 35.9624 35.037L36.158 35.756H35.6271L35.4315 35.1015C35.4129 35.0462 35.3942 34.9909 35.3756 34.9541C35.357 34.908 35.3384 34.8803 35.3197 34.8527C35.2918 34.825 35.2638 34.8066 35.2266 34.7974C35.1893 34.7881 35.1428 34.7789 35.0869 34.7789H34.705V35.7652H34.202V33.1381H35.1334C35.2359 33.1381 35.3384 33.1474 35.4501 33.175C35.5526 33.2027 35.655 33.2395 35.7389 33.2948C35.8227 33.3502 35.8972 33.4331 35.9438 33.5345C35.9997 33.6359 36.0276 33.765 36.0276 33.9124C36.0276 34.0507 35.9997 34.1705 35.9345 34.2812C35.8786 34.3825 35.7761 34.4747 35.655 34.5577ZM31.9945 35.7468V33.1197H33.727V33.599H32.5068V34.1982H33.5221V34.6775H32.5068V35.2767H33.8201V35.756H31.9945V35.7468ZM31.5661 35.0278C31.5661 35.1568 31.5381 35.2675 31.4822 35.3689C31.4264 35.4703 31.3612 35.544 31.2773 35.6085C31.1935 35.673 31.091 35.7191 30.9886 35.756C30.8768 35.7837 30.765 35.8021 30.6626 35.8021C30.5415 35.8021 30.4297 35.7929 30.3273 35.7744C30.2248 35.756 30.141 35.7284 30.0665 35.7007C29.992 35.673 29.9268 35.6454 29.8709 35.6177C29.815 35.5901 29.7777 35.5624 29.7591 35.544L29.9733 35.1108C30.0013 35.1292 30.0292 35.1568 30.0758 35.1845C30.1224 35.2122 30.1689 35.2398 30.2248 35.2675C30.2807 35.2951 30.3459 35.3136 30.4204 35.332C30.4949 35.3504 30.5694 35.3596 30.6626 35.3596C30.793 35.3596 30.8861 35.332 30.9606 35.2767C31.0352 35.2214 31.0724 35.1476 31.0724 35.0555C31.0724 35.0001 31.0631 34.9541 31.0538 34.908C31.0445 34.8711 31.0165 34.825 30.97 34.7974C30.9327 34.7605 30.8675 34.7236 30.793 34.696C30.7185 34.6591 30.616 34.6222 30.4949 34.5853C30.3832 34.5485 30.2807 34.5116 30.1969 34.4655C30.113 34.4194 30.0385 34.3641 29.9733 34.3088C29.9174 34.2443 29.8709 34.1798 29.8336 34.0968C29.8057 34.0138 29.787 33.9217 29.787 33.811C29.787 33.7096 29.8057 33.6083 29.8429 33.5161C29.8802 33.4239 29.9361 33.3502 30.0106 33.2856C30.0851 33.2211 30.1782 33.1658 30.29 33.1289C30.4018 33.0921 30.5322 33.0736 30.6719 33.0736C30.793 33.0736 30.9048 33.0828 30.9979 33.1105C31.091 33.1381 31.1749 33.1658 31.2494 33.2027C31.3239 33.2395 31.3798 33.2764 31.4264 33.3225C31.4729 33.3686 31.5195 33.4055 31.5474 33.4423L31.2773 33.7926C31.2494 33.765 31.2121 33.7281 31.1749 33.7004C31.1283 33.6728 31.0817 33.6359 31.0258 33.6175C30.97 33.5898 30.9141 33.5714 30.8489 33.5529C30.7837 33.5345 30.7185 33.5253 30.644 33.5253C30.5042 33.5253 30.4111 33.5529 30.3552 33.6083C30.2993 33.6636 30.2714 33.7281 30.2714 33.8018C30.2714 33.8479 30.2807 33.894 30.2993 33.9217C30.318 33.9585 30.3459 33.9862 30.3832 34.0138C30.4204 34.0415 30.4763 34.0691 30.5415 34.0968C30.6067 34.1245 30.6905 34.1521 30.793 34.189C30.9327 34.2351 31.0538 34.2904 31.1469 34.3365C31.2494 34.3918 31.3239 34.4471 31.3891 34.5116C31.4543 34.5761 31.5009 34.6499 31.5288 34.742C31.5474 34.8158 31.5661 34.9172 31.5661 35.0278ZM27.3281 34.4839L27.2443 34.53C27.1511 34.5853 27.0766 34.6499 27.0207 34.7328C26.9648 34.8158 26.9369 34.908 26.9369 35.0001C26.9369 35.1108 26.9648 35.2029 27.03 35.2675C27.0859 35.332 27.1697 35.3689 27.2815 35.3689C27.3374 35.3689 27.384 35.3596 27.4305 35.3412C27.4771 35.3228 27.5144 35.2951 27.5516 35.2582C27.5889 35.2306 27.6261 35.1937 27.6541 35.1568C27.682 35.12 27.71 35.0831 27.7379 35.0462L27.3281 34.4839ZM28.2595 35.7468L28.0173 35.4057C27.9708 35.461 27.9335 35.5163 27.8869 35.5624C27.8404 35.6085 27.7845 35.6546 27.7286 35.6823C27.6727 35.7191 27.6075 35.7468 27.533 35.7652C27.4585 35.7837 27.3747 35.7929 27.2722 35.7929C27.1325 35.7929 27.0021 35.7744 26.8996 35.7284C26.7972 35.6823 26.7133 35.627 26.6481 35.5624C26.5829 35.4887 26.5364 35.4057 26.4991 35.3228C26.4712 35.2306 26.4525 35.1384 26.4525 35.037C26.4525 34.8803 26.4991 34.7328 26.5829 34.5946C26.6668 34.4471 26.8065 34.3272 26.9834 34.2166L27.0952 34.1521C27.0487 34.0876 27.0021 34.0138 26.9555 33.9401C26.9183 33.8664 26.8996 33.7834 26.8996 33.682C26.8996 33.599 26.9183 33.5161 26.9462 33.4515C26.9835 33.3778 27.03 33.3225 27.0859 33.2764C27.1418 33.2303 27.2163 33.1934 27.3001 33.1658C27.384 33.1381 27.4678 33.1289 27.5609 33.1289C27.6541 33.1289 27.7379 33.1381 27.8031 33.1566C27.8776 33.175 27.9335 33.2027 27.9894 33.2303C28.0453 33.2672 28.0918 33.3041 28.1384 33.3502C28.185 33.3962 28.2222 33.4423 28.2595 33.4976L27.9428 33.7834C27.8776 33.7004 27.8217 33.6359 27.7659 33.5806C27.71 33.5345 27.6448 33.5069 27.5703 33.5069C27.5051 33.5069 27.4585 33.5253 27.4305 33.5529C27.3933 33.5806 27.3747 33.6175 27.3747 33.6728C27.3747 33.7096 27.384 33.7465 27.4026 33.7834C27.4212 33.8203 27.4492 33.8664 27.4864 33.9032L28.0173 34.6222L28.4272 34.0323L28.7625 34.3365L28.2968 35.0001L28.8463 35.7468H28.2595ZM24.9529 34.4471C24.9529 34.2996 24.925 34.1613 24.8691 34.0231C24.8132 33.894 24.7294 33.7926 24.6269 33.7189C24.5711 33.682 24.4965 33.6543 24.4127 33.6267C24.3289 33.6083 24.2451 33.599 24.1519 33.599H23.9377V35.2767H24.1426C24.3196 35.2767 24.4779 35.2398 24.599 35.1753C24.7201 35.1108 24.8039 35.0094 24.8691 34.8711C24.925 34.742 24.9529 34.5946 24.9529 34.4471ZM25.4652 34.4194C25.4652 34.5393 25.4559 34.6683 25.428 34.7881C25.4 34.908 25.3628 35.0186 25.3069 35.1292C25.251 35.2398 25.1858 35.332 25.102 35.4149C25.0181 35.4979 24.925 35.5717 24.8132 35.6177C24.6269 35.7099 24.422 35.756 24.1799 35.756H23.4161V33.1289H24.1612C24.2544 33.1289 24.3661 33.1381 24.4779 33.1566C24.599 33.175 24.7015 33.2027 24.8132 33.2488C24.925 33.3041 25.0181 33.3686 25.102 33.4515C25.1858 33.5345 25.251 33.6267 25.3069 33.7281C25.3628 33.8295 25.4 33.9401 25.428 34.0599C25.4559 34.1798 25.4652 34.2996 25.4652 34.4194ZM21.5719 34.7789H22.2797L21.9258 33.7465L21.5719 34.7789ZM20.7149 35.7468L21.6743 33.1197H22.1773L23.1367 35.7468H22.6151L22.4288 35.2214H21.4135L21.2365 35.7468H20.7149ZM18.7869 35.7468V33.1197H20.5193V33.599H19.2992V34.1982H20.3144V34.6775H19.2992V35.2767H20.6125V35.756H18.7869V35.7468ZM16.6725 35.7468V33.1197H17.1848V35.2675H18.4143V35.7468H16.6725ZM38.0022 30.8337C38.0022 30.7507 37.9929 30.677 37.9743 30.6125C37.9557 30.5387 37.9277 30.4834 37.8905 30.4281C37.8532 30.3728 37.8066 30.3359 37.7508 30.3083C37.6949 30.2806 37.639 30.2622 37.5645 30.2622C37.49 30.2622 37.4341 30.2806 37.3782 30.3083C37.3223 30.3359 37.2757 30.382 37.2385 30.4281C37.2012 30.4834 37.1733 30.5387 37.1546 30.6125C37.136 30.6862 37.1267 30.7599 37.1267 30.8337C37.1267 30.9166 37.136 30.9904 37.1546 31.0641C37.1733 31.1379 37.2012 31.1932 37.2385 31.2485C37.2757 31.3038 37.3223 31.3407 37.3782 31.3775C37.4341 31.4052 37.4993 31.4236 37.5645 31.4236C37.639 31.4236 37.6949 31.4052 37.7508 31.3775C37.8066 31.3499 37.8532 31.3038 37.8905 31.2485C37.9277 31.1932 37.9557 31.1379 37.9743 31.0641C37.9929 30.9904 38.0022 30.9166 38.0022 30.8337ZM38.4959 30.8337C38.4959 30.9535 38.4773 31.0826 38.44 31.2024C38.4028 31.3222 38.3469 31.4328 38.2724 31.525C38.1978 31.6172 38.1047 31.7002 37.9836 31.7555C37.8718 31.8108 37.7321 31.8384 37.5831 31.8384C37.4248 31.8384 37.2944 31.8108 37.1826 31.7555C37.0708 31.7002 36.9684 31.6172 36.8938 31.525C36.8193 31.4328 36.7634 31.3222 36.7262 31.2024C36.6889 31.0826 36.6703 30.9627 36.6703 30.8337C36.6703 30.7139 36.6889 30.594 36.7262 30.4742C36.7634 30.3544 36.8193 30.253 36.8938 30.1608C36.9684 30.0686 37.0615 29.9949 37.1826 29.9396C37.2944 29.8842 37.4341 29.8566 37.5831 29.8566C37.7414 29.8566 37.8718 29.8842 37.9836 29.9396C38.0954 29.9949 38.1978 30.0686 38.2724 30.1608C38.3469 30.253 38.4028 30.3636 38.4493 30.4742C38.4773 30.594 38.4959 30.7139 38.4959 30.8337ZM35.9624 31.8384C35.7948 31.8384 35.6644 31.7923 35.5805 31.7002C35.4967 31.608 35.4594 31.4881 35.4594 31.3591V30.299H35.1893V29.9027H35.4594V29.4049H35.9531V29.8935H36.3909V30.2898H35.9531V31.2577C35.9531 31.3222 35.9717 31.3591 35.9997 31.3868C36.0276 31.4144 36.0649 31.4236 36.1021 31.4236C36.2046 31.4236 36.2884 31.396 36.3536 31.3407L36.484 31.6909C36.4188 31.737 36.3443 31.7739 36.2512 31.8016C36.158 31.82 36.0649 31.8384 35.9624 31.8384ZM34.3045 30.3083C34.2858 30.299 34.2579 30.299 34.23 30.299C34.202 30.299 34.1741 30.299 34.1368 30.299C34.0437 30.299 33.9598 30.3267 33.8853 30.3728C33.8108 30.4189 33.7456 30.4742 33.699 30.5203V31.7923H33.2054V29.8935H33.6525L33.6804 30.0963C33.699 30.0686 33.727 30.0409 33.7642 30.0133C33.8015 29.9856 33.8388 29.958 33.876 29.9303C33.9226 29.9027 33.9598 29.8842 34.0064 29.875C34.053 29.8566 34.0996 29.8566 34.1554 29.8566C34.202 29.8566 34.2486 29.8566 34.2858 29.8658C34.3324 29.875 34.3604 29.875 34.3697 29.8842L34.3045 30.3083ZM32.3392 30.6125C32.3298 30.5479 32.3205 30.4926 32.3019 30.4373C32.274 30.3912 32.2553 30.3451 32.2181 30.3175C32.1808 30.2898 32.1529 30.2622 32.1063 30.253C32.069 30.2345 32.0318 30.2345 31.9852 30.2345C31.9014 30.2345 31.8176 30.2622 31.743 30.3267C31.6685 30.3912 31.622 30.4834 31.6033 30.6125H32.3392ZM31.594 30.9627C31.6033 31.1194 31.6592 31.2393 31.743 31.313C31.8362 31.3868 31.948 31.4236 32.097 31.4236C32.1622 31.4236 32.2274 31.4144 32.2833 31.4052C32.3392 31.396 32.395 31.3775 32.4416 31.3591C32.4882 31.3407 32.5254 31.3222 32.5534 31.3038C32.5813 31.2854 32.6093 31.2669 32.6279 31.2485L32.7583 31.6449C32.7397 31.6541 32.7117 31.6725 32.6652 31.7002C32.6279 31.7186 32.572 31.7462 32.5161 31.7647C32.4509 31.7831 32.3857 31.8016 32.3019 31.82C32.2181 31.8384 32.1249 31.8384 32.0318 31.8384C31.9107 31.8384 31.7896 31.82 31.6778 31.7831C31.5661 31.7462 31.4636 31.6817 31.3798 31.5988C31.296 31.5158 31.2308 31.4144 31.1749 31.2854C31.1283 31.1655 31.1004 31.018 31.1004 30.8429C31.1004 30.6862 31.1283 30.5387 31.1656 30.4189C31.2121 30.299 31.2773 30.1884 31.3612 30.1055C31.445 30.0225 31.5381 29.958 31.6406 29.9119C31.7524 29.8658 31.8641 29.8474 31.9852 29.8474C32.1063 29.8474 32.2181 29.8658 32.3205 29.9027C32.423 29.9396 32.5161 30.0041 32.5906 30.087C32.6652 30.17 32.7304 30.2806 32.7676 30.4097C32.8142 30.5387 32.8328 30.6954 32.8328 30.8798V30.9627H31.594ZM28.9022 31.7923L28.2781 29.8935H28.7904L29.1164 31.0918L29.4238 29.8935H29.8243L30.141 31.0918L30.467 29.8935H30.9793L30.3552 31.7923H29.9547L29.6287 30.5571L29.3027 31.7923H28.9022ZM27.6634 30.8337C27.6634 30.7507 27.6541 30.677 27.6355 30.6125C27.6168 30.5387 27.5889 30.4834 27.5516 30.4281C27.5144 30.3728 27.4678 30.3359 27.4119 30.3083C27.356 30.2806 27.3001 30.2622 27.2256 30.2622C27.1511 30.2622 27.0952 30.2806 27.0393 30.3083C26.9835 30.3359 26.9369 30.382 26.8996 30.4281C26.8624 30.4834 26.8344 30.5387 26.8158 30.6125C26.7972 30.6862 26.7879 30.7599 26.7879 30.8337C26.7879 30.9166 26.7972 30.9904 26.8158 31.0641C26.8344 31.1379 26.8624 31.1932 26.8996 31.2485C26.9369 31.3038 26.9835 31.3407 27.0393 31.3775C27.0952 31.4052 27.1604 31.4236 27.2256 31.4236C27.3001 31.4236 27.356 31.4052 27.4119 31.3775C27.4678 31.3499 27.5144 31.3038 27.5516 31.2485C27.5889 31.1932 27.6168 31.1379 27.6355 31.0641C27.6541 30.9904 27.6634 30.9166 27.6634 30.8337ZM28.1477 30.8337C28.1477 30.9535 28.1291 31.0826 28.0918 31.2024C28.0546 31.3222 27.9987 31.4328 27.9242 31.525C27.8497 31.6172 27.7565 31.7002 27.6355 31.7555C27.5237 31.8108 27.384 31.8384 27.2349 31.8384C27.0766 31.8384 26.9462 31.8108 26.8344 31.7555C26.7227 31.7002 26.6202 31.6172 26.5457 31.525C26.4712 31.4328 26.4153 31.3222 26.378 31.2024C26.3408 31.0826 26.3221 30.9627 26.3221 30.8337C26.3221 30.7139 26.3408 30.594 26.378 30.4742C26.4153 30.3544 26.4712 30.253 26.5457 30.1608C26.6202 30.0686 26.7133 29.9949 26.8344 29.9396C26.9462 29.8842 27.0859 29.8566 27.2349 29.8566C27.3933 29.8566 27.5237 29.8842 27.6355 29.9396C27.7472 29.9949 27.8497 30.0686 27.9242 30.1608C27.9987 30.253 28.0546 30.3636 28.1012 30.4742C28.1291 30.594 28.1477 30.7139 28.1477 30.8337ZM25.5677 30.8521C25.5677 30.7784 25.5584 30.7046 25.5397 30.6309C25.5211 30.5571 25.4932 30.4926 25.4652 30.4373C25.428 30.382 25.3907 30.3359 25.3348 30.299C25.2789 30.2622 25.2231 30.2437 25.1579 30.2437C25.0927 30.2437 25.0275 30.2622 24.9623 30.299C24.8971 30.3359 24.8598 30.382 24.8319 30.4189V31.3407C24.9064 31.3775 24.9902 31.396 25.0647 31.396C25.1485 31.396 25.2324 31.3775 25.2883 31.3499C25.3535 31.3222 25.4093 31.2761 25.4466 31.2208C25.4932 31.1655 25.5211 31.1102 25.5397 31.0365C25.5491 30.9904 25.5677 30.9166 25.5677 30.8521ZM26.0427 30.8429C26.0427 30.9627 26.0241 31.0918 25.9868 31.2116C25.9496 31.3314 25.8937 31.4328 25.8099 31.5342C25.7353 31.6264 25.6329 31.7002 25.5118 31.7647C25.3907 31.82 25.2417 31.8476 25.0833 31.8476C24.9995 31.8476 24.9157 31.8292 24.8319 31.7923V32.5482H24.3382V29.9027H24.7946L24.8225 30.0409C24.8691 29.9949 24.925 29.958 24.9995 29.9119C25.074 29.875 25.1672 29.8474 25.2696 29.8474C25.4 29.8474 25.5118 29.875 25.6143 29.9303C25.7167 29.9856 25.8005 30.0594 25.8657 30.1516C25.9309 30.2437 25.9775 30.3451 26.0148 30.465C26.0241 30.5848 26.0427 30.7138 26.0427 30.8429ZM23.3602 31.7923V30.677C23.3602 30.5479 23.3323 30.4465 23.2857 30.3728C23.2391 30.299 23.146 30.253 23.0156 30.253C22.9783 30.253 22.9411 30.2622 22.9038 30.2714C22.8665 30.2806 22.8293 30.299 22.792 30.3083C22.7548 30.3267 22.7268 30.3359 22.6989 30.3544C22.6709 30.3728 22.6523 30.3912 22.6337 30.4004C22.643 30.4281 22.643 30.465 22.6523 30.5111C22.6616 30.5479 22.6616 30.594 22.6616 30.6401V31.7831H22.168V30.6678C22.168 30.6125 22.1587 30.5571 22.1587 30.5018C22.1493 30.4465 22.1307 30.4097 22.1121 30.3636C22.0841 30.3267 22.0562 30.299 22.0189 30.2714C21.9817 30.253 21.9351 30.2345 21.8699 30.2345C21.7954 30.2345 21.7209 30.253 21.6557 30.2898C21.5905 30.3267 21.5346 30.3728 21.488 30.4189V31.7739H20.9944V29.875H21.4508L21.4694 30.0133C21.5253 29.958 21.5998 29.9119 21.6836 29.875C21.7675 29.8382 21.8606 29.8197 21.9444 29.8197C22.0376 29.8197 22.1214 29.8289 22.2145 29.8566C22.3077 29.8842 22.3822 29.9303 22.466 30.0041C22.5499 29.9488 22.6523 29.9119 22.7548 29.875C22.8572 29.8382 22.969 29.8197 23.0901 29.8197C23.2298 29.8197 23.3509 29.8382 23.4533 29.875C23.5465 29.9119 23.6303 29.9672 23.6862 30.0317C23.7421 30.0963 23.7887 30.1884 23.8073 30.2806C23.8352 30.382 23.8445 30.4926 23.8445 30.6217V31.7555H23.3602V31.7923ZM18.8241 31.7923V29.1653H20.5566V29.6446H19.3364V30.2437H20.3517V30.7231H19.3364V31.3222H20.6497V31.8016H18.8241V31.7923Z" fill="#FFD100"/>
<path id="Vector_9" fill-rule="evenodd" clip-rule="evenodd" d="M12.1458 22.215L12.3414 22.132C14.0552 21.0996 15.0146 21.625 16.7936 19.339C17.93 17.8826 18.0231 16.334 17.6599 14.4536C17.6412 14.3337 17.604 14.177 17.5667 14.048C17.5481 13.965 17.5295 13.9189 17.5015 13.8452C17.4177 13.6516 17.4829 13.7622 17.3991 13.6516C17.3897 13.67 17.3711 13.6793 17.3711 13.7069L17.1662 14.1862C15.8715 17.3756 13.841 18.0854 10.7673 19.422C8.0941 20.5926 6.95776 21.8094 6.88325 24.6393C6.86462 25.3398 6.88325 26.9806 7.28376 27.5152C7.51662 27.0267 7.47005 26.6488 7.9637 25.8007C8.82993 24.2982 10.5344 22.7496 12.1458 22.215Z" fill="white"/>
<path id="Vector_10" fill-rule="evenodd" clip-rule="evenodd" d="M11.1492 20.4913C11.1678 20.6387 11.1958 20.7401 11.2517 20.8692L11.3169 20.989C11.3262 20.9982 11.3262 20.9982 11.3355 21.0075L11.3634 21.0535C11.4286 21.1457 11.5125 21.2287 11.5963 21.2932C11.6056 21.3024 11.6056 21.3024 11.6149 21.3116C11.6242 21.3209 11.6242 21.3209 11.6335 21.3301C11.6801 21.367 11.7546 21.413 11.8105 21.4315C11.8385 21.4499 11.8757 21.4591 11.9037 21.4684C11.9595 21.4868 12.0061 21.5052 12.062 21.5144C12.1645 21.5329 12.1831 21.5329 12.2949 21.5421C12.4439 21.5513 12.6581 21.5052 12.7792 21.4499C12.8258 21.4223 12.8817 21.4038 12.9282 21.3762C12.9375 21.367 12.9375 21.367 12.9469 21.3577C13.0121 21.3209 13.0959 21.2471 13.1425 21.1918L13.2542 21.0535C13.2729 21.0259 13.2915 20.9982 13.3101 20.9706C13.3194 20.9522 13.3287 20.9429 13.3381 20.9245C13.3567 20.8876 13.3939 20.8231 13.4033 20.7862C13.4033 20.777 13.4033 20.777 13.4033 20.777C13.4033 20.7678 13.4033 20.7678 13.4126 20.7678L13.4312 20.7125C13.4405 20.6756 13.4498 20.6387 13.4591 20.6019C13.4871 20.4636 13.4871 20.353 13.4685 20.2147C13.4591 20.1686 13.4498 20.1225 13.4405 20.0857C13.4219 20.0119 13.4033 19.9566 13.366 19.8921L13.3008 19.7723C13.2915 19.7631 13.2915 19.7631 13.2915 19.7538C13.2822 19.7446 13.2822 19.7446 13.2729 19.7354C13.2356 19.6709 13.1238 19.551 13.0679 19.505L12.9469 19.4128C12.9189 19.3943 12.891 19.3759 12.863 19.3575C12.8258 19.339 12.7606 19.3022 12.7233 19.2929C12.714 19.2929 12.714 19.2929 12.714 19.2929C12.7047 19.2929 12.7047 19.2929 12.7047 19.2837L12.6022 19.2561C12.4439 19.2192 12.3135 19.2192 12.1551 19.2376C12.0341 19.2561 11.9316 19.2837 11.8291 19.3298C11.7826 19.3482 11.736 19.3851 11.6801 19.4128C11.6615 19.422 11.6335 19.4404 11.6149 19.4589C11.5497 19.4957 11.4566 19.5971 11.41 19.6524L11.3448 19.7354C11.3075 19.7999 11.2423 19.9013 11.2237 19.9751L11.1865 20.0765C11.1492 20.2055 11.1399 20.353 11.1492 20.4913ZM11.9409 19.4404C11.9502 19.4312 11.9968 19.4128 12.0154 19.4128C12.0247 19.4496 12.0806 19.4589 12.1086 19.4312C12.1179 19.422 12.1179 19.4128 12.1179 19.3943C12.1272 19.3851 12.1738 19.3851 12.1924 19.3759C12.1924 19.4036 12.1924 19.422 12.2017 19.4496C12.2017 19.4681 12.2017 19.4681 12.2017 19.4865C12.2017 19.505 12.2017 19.5142 12.2017 19.5234L12.211 19.6709C12.211 19.6893 12.211 19.6893 12.211 19.7077C12.211 19.717 12.211 19.7354 12.211 19.7446L12.2297 19.9751C12.2297 20.0027 12.2762 20.1502 12.2762 20.1686C12.2669 20.1686 12.2576 20.1686 12.2483 20.1779C12.2483 20.1594 12.1924 19.9843 12.1924 19.9658L11.9409 19.4404ZM12.3321 20.1686C12.3228 20.1686 12.3135 20.1686 12.3042 20.1686V20.0672C12.3042 20.0488 12.3042 20.0304 12.3042 20.0211C12.3042 19.9382 12.2949 19.9658 12.2949 19.8921L12.2762 19.8184C12.2669 19.7723 12.2576 19.7446 12.2576 19.7077C12.2576 19.6893 12.2483 19.6893 12.2483 19.6709C12.2483 19.6524 12.239 19.6156 12.239 19.5971C12.2297 19.5695 12.2297 19.5418 12.2297 19.5234C12.2297 19.5142 12.2203 19.505 12.2203 19.4865C12.2203 19.4589 12.2017 19.4128 12.2017 19.3759C12.2203 19.3759 12.2669 19.3667 12.2762 19.3759C12.2855 19.4496 12.3787 19.4312 12.3787 19.3759C12.3973 19.3759 12.4439 19.3851 12.4532 19.3851L12.4159 19.5787C12.4066 19.6156 12.388 19.7262 12.3787 19.7723C12.3694 19.8184 12.3601 19.8921 12.3414 19.9382C12.3414 19.9474 12.3414 19.9566 12.3321 19.9658C12.3414 19.9751 12.3321 20.1502 12.3321 20.1686ZM11.8664 19.4681C11.8664 19.4681 11.9316 19.4404 11.9409 19.4404C11.9502 19.4589 11.9502 19.4681 11.9595 19.4865L12.0993 19.8737C12.1272 19.9474 12.1272 19.9843 12.1738 20.058L12.239 20.1871C12.2297 20.1963 12.2203 20.1963 12.211 20.1963L12.0993 20.0119L12.0713 19.9751C12.062 19.9658 12.062 19.9658 12.0527 19.9566L11.9595 19.846C11.9502 19.8368 11.9502 19.8368 11.9409 19.8276L11.8291 19.6985C11.8198 19.6801 11.7174 19.5695 11.7174 19.5603C11.7267 19.551 11.7733 19.5234 11.7826 19.5142C11.8012 19.551 11.885 19.551 11.8757 19.4773C11.8664 19.4773 11.8664 19.4773 11.8664 19.4681ZM12.5463 19.4036C12.5557 19.4773 12.6395 19.4589 12.6488 19.422C12.6581 19.422 12.7047 19.4404 12.7233 19.4496L12.4718 19.9658C12.4532 20.0119 12.4532 20.0119 12.4346 20.0672L12.388 20.1871C12.3787 20.1871 12.3694 20.1871 12.3601 20.1779C12.3601 20.1686 12.3601 20.1594 12.3694 20.1502L12.4159 19.9935C12.4253 19.9658 12.4253 19.929 12.4253 19.8921C12.4253 19.8368 12.4439 19.7354 12.4439 19.6893L12.4718 19.3759C12.4811 19.3759 12.5463 19.3943 12.5463 19.3851C12.5463 19.3943 12.537 19.3943 12.5463 19.4036ZM11.6429 19.6156C11.6615 19.6063 11.6894 19.5787 11.6987 19.5695C11.7081 19.5787 11.7081 19.5787 11.7174 19.5879L11.8198 19.7354C11.8291 19.7446 11.8291 19.7446 11.8385 19.7538L12.0527 20.0672L12.1924 20.2055C12.1924 20.2147 12.1831 20.2239 12.1738 20.2239C12.1645 20.2147 12.1551 20.1963 12.1365 20.1871L12.0061 20.0672L11.6149 19.7907C11.6056 19.7815 11.6056 19.7815 11.5963 19.7723C11.5777 19.7631 11.5497 19.7446 11.5311 19.7262C11.5311 19.717 11.5404 19.717 11.5404 19.7077L11.5683 19.6801C11.5777 19.6709 11.5777 19.6709 11.587 19.6709C11.5963 19.6801 11.6335 19.6985 11.6615 19.6617C11.6708 19.6524 11.6522 19.634 11.6429 19.6156ZM12.7885 19.5142C12.7885 19.5326 12.7978 19.5418 12.8071 19.5418C12.8444 19.5695 12.8817 19.5418 12.8817 19.5326C12.891 19.5326 12.9096 19.5418 12.9189 19.551L12.9375 19.5695C12.9469 19.5695 12.9375 19.5695 12.9469 19.5787L12.6767 19.8829C12.6674 19.8921 12.6674 19.8921 12.6581 19.9013C12.6488 19.9105 12.6488 19.9105 12.6395 19.9198L12.537 20.0304C12.5277 20.0396 12.5184 20.058 12.5091 20.0765L12.4253 20.2055C12.4159 20.2055 12.4066 20.1963 12.3973 20.1963C12.4066 20.1779 12.4159 20.1686 12.4253 20.1502L12.4998 20.0211C12.5091 20.0119 12.4998 20.0119 12.5091 20.0027C12.5091 19.9935 12.5091 19.9935 12.5184 19.9935L12.6861 19.5234C12.6861 19.5142 12.6954 19.505 12.6954 19.4957L12.714 19.4496C12.7233 19.4496 12.7699 19.4773 12.7792 19.4773C12.7885 19.4957 12.7885 19.4957 12.7885 19.5142ZM11.5125 19.7538C11.5311 19.7631 11.559 19.7907 11.5683 19.7999L11.8012 19.9935C11.8105 20.0027 11.8105 20.0027 11.8198 20.0119L11.9502 20.1225C11.9875 20.1502 11.9689 20.141 12.0154 20.1686C12.0341 20.1779 12.0434 20.1871 12.062 20.1963C12.0899 20.2147 12.1272 20.2332 12.1551 20.2516C12.1551 20.2608 12.1458 20.27 12.1458 20.2793L11.9409 20.1686L11.6615 20.0672C11.6522 20.0672 11.6522 20.0672 11.6522 20.058C11.587 20.0304 11.5125 20.0119 11.4473 19.9843L11.4007 19.9658C11.4007 19.9566 11.41 19.9382 11.4193 19.929L11.4379 19.8921C11.4566 19.8921 11.4752 19.9105 11.5031 19.8737C11.5311 19.8368 11.5031 19.7999 11.4938 19.7999C11.4938 19.7907 11.4938 19.7907 11.5031 19.7815L11.5125 19.7538ZM12.9934 19.6709C12.9934 19.6893 12.9934 19.6985 13.0121 19.7077C13.04 19.7354 13.0679 19.7077 13.0773 19.7077C13.0866 19.7262 13.1238 19.7538 13.1238 19.7631L13.0773 19.7907C13.0679 19.7999 13.0679 19.7999 13.0586 19.7999C13.0493 19.8091 13.0493 19.8091 13.04 19.8184L12.6115 20.1041L12.4718 20.2424C12.4625 20.2424 12.4532 20.2332 12.4532 20.2239L12.5929 20.0765L12.7233 19.8921C12.7326 19.8829 12.7326 19.8829 12.7419 19.8737C12.7513 19.8644 12.7513 19.8644 12.7513 19.8552L12.9189 19.6156C12.9282 19.6063 12.9282 19.5971 12.9469 19.5879L12.9655 19.6063C12.9655 19.6063 12.9748 19.6063 12.9748 19.6156C12.9841 19.6248 12.9841 19.6248 12.9934 19.6248C13.0027 19.634 13.0027 19.634 13.0027 19.6432C12.9934 19.6432 12.9934 19.6524 12.9934 19.6524C13.0027 19.6524 12.9934 19.6617 12.9934 19.6709ZM11.3821 19.9843C11.3914 19.9843 11.4379 20.0119 11.4473 20.0119L11.8757 20.2239C11.885 20.2239 11.8943 20.2332 11.8943 20.2332C11.9409 20.2608 11.9689 20.2608 12.0154 20.2793L12.1179 20.3069C12.1179 20.3161 12.1179 20.3253 12.1086 20.3346C12.0993 20.3346 12.0899 20.3346 12.0806 20.3253L11.9223 20.2793C11.9037 20.2793 11.8664 20.2793 11.8291 20.2793L11.4659 20.2516C11.4473 20.2516 11.4286 20.2516 11.41 20.2516C11.3727 20.2516 11.3355 20.2424 11.3075 20.2424C11.3075 20.2332 11.3262 20.1686 11.3262 20.1686C11.41 20.1779 11.4007 20.0765 11.3541 20.0672C11.3541 20.0488 11.3727 19.9935 11.3821 19.9843ZM13.1611 19.8829C13.1611 19.9105 13.1983 19.9382 13.2356 19.9198L13.2635 19.9935L13.0679 20.058C13.0493 20.0672 13.04 20.0672 13.0214 20.0765L12.7792 20.1594C12.7233 20.1779 12.6954 20.1871 12.6395 20.2147L12.5929 20.2424C12.565 20.2516 12.5277 20.2793 12.5091 20.2885C12.4998 20.2793 12.4998 20.27 12.4998 20.2608L12.6861 20.1594L13.1518 19.7723C13.1611 19.7815 13.189 19.8276 13.1983 19.8368C13.1611 19.8368 13.1518 19.8644 13.1611 19.8829ZM11.3075 20.2332C11.3169 20.2332 11.3262 20.2332 11.3355 20.2424C11.4007 20.2608 11.4938 20.27 11.5497 20.2885L11.6429 20.3069C11.6894 20.3161 11.7919 20.3346 11.8385 20.3438L11.885 20.353C11.9037 20.353 12.0899 20.3622 12.1086 20.3622C12.1086 20.3714 12.1086 20.3714 12.1086 20.3899H11.9595C11.8943 20.3899 11.8943 20.3991 11.8291 20.3991L11.2982 20.4913C11.2982 20.4728 11.2889 20.4267 11.2982 20.4175C11.3727 20.4083 11.3541 20.3161 11.2982 20.3161C11.2982 20.2977 11.3075 20.2516 11.3075 20.2332ZM13.2542 20.1318C13.2542 20.1594 13.2822 20.1779 13.3194 20.1779C13.3287 20.2055 13.3287 20.2239 13.3381 20.2516C13.3101 20.2516 13.2915 20.2516 13.2635 20.2608C13.2449 20.2608 13.2449 20.2608 13.2263 20.2608C13.2077 20.2608 13.1983 20.2608 13.189 20.2608L12.8351 20.2793C12.8165 20.2793 12.8165 20.2793 12.7978 20.2793C12.7233 20.2885 12.7513 20.2793 12.6674 20.2977L12.5184 20.3346C12.5184 20.3161 12.5184 20.3161 12.5091 20.3069C12.5277 20.3069 12.5463 20.2977 12.565 20.2885C12.6209 20.27 12.6954 20.2608 12.7419 20.2332L12.8351 20.1871C12.8444 20.1871 12.8537 20.1779 12.8537 20.1779L12.9003 20.1594C12.9189 20.1502 12.9282 20.1502 12.9469 20.141L12.9934 20.1225C13.04 20.1041 13.1238 20.058 13.1704 20.0396L13.2635 19.9935C13.2729 20.0027 13.2915 20.0488 13.2915 20.0672C13.2729 20.0765 13.2542 20.1041 13.2542 20.1318ZM11.3075 20.5005L11.6894 20.4728C11.7081 20.4728 11.7453 20.4728 11.7639 20.4728C11.8291 20.4636 11.885 20.4728 11.9689 20.4544C11.9875 20.4452 11.9968 20.4452 12.0154 20.4452L12.1179 20.4175C12.1179 20.436 12.1179 20.436 12.1272 20.4452C12.1086 20.4452 12.0899 20.4544 12.0713 20.4544C12.0061 20.4728 11.9595 20.482 11.8943 20.5097L11.3727 20.7494C11.3634 20.7401 11.3448 20.6941 11.3448 20.6756C11.4007 20.6664 11.3914 20.565 11.3169 20.5742C11.3169 20.565 11.3075 20.5189 11.3075 20.5005ZM13.3381 20.3346C13.2635 20.3438 13.2822 20.436 13.3381 20.436C13.3381 20.4544 13.3287 20.5005 13.3287 20.5097C13.3194 20.5097 13.3101 20.5097 13.3008 20.5005L12.9841 20.436C12.9655 20.436 12.9469 20.4267 12.9375 20.4267L12.863 20.4175C12.8071 20.4083 12.7513 20.3899 12.6861 20.3899C12.6674 20.3899 12.6488 20.3899 12.6302 20.3899H12.5184C12.5184 20.3806 12.5184 20.3806 12.5184 20.3622H12.6674C12.7513 20.3622 12.7233 20.353 12.7978 20.353L12.8723 20.3346C12.891 20.3346 12.9282 20.3253 12.9469 20.3253C12.9655 20.3161 13.0586 20.3069 13.0959 20.2977C13.1238 20.2885 13.1518 20.2885 13.1704 20.2885L13.3194 20.2608C13.3381 20.2792 13.3381 20.3069 13.3381 20.3346ZM11.5031 20.9798C11.4938 20.9706 11.4659 20.9245 11.4566 20.9153C11.5031 20.8968 11.4845 20.7954 11.4007 20.8231C11.4007 20.8231 11.3727 20.7586 11.3727 20.7494L11.5683 20.6848C11.587 20.6756 11.5963 20.6756 11.6149 20.6664L11.7639 20.6111C11.8198 20.5927 11.913 20.565 11.9595 20.5466L12.0247 20.5097C12.0341 20.5005 12.0341 20.5005 12.0434 20.5005C12.0527 20.5005 12.0527 20.4913 12.062 20.4913L12.1086 20.4728C12.1179 20.4728 12.1272 20.4636 12.1365 20.4636C12.1458 20.4728 12.1458 20.482 12.1458 20.4913L12.0061 20.5742C11.9968 20.5834 11.9875 20.5834 11.9875 20.5834C11.9782 20.5927 11.9782 20.5927 11.9689 20.6019C11.9595 20.6111 11.9595 20.6111 11.9502 20.6203L11.736 20.7954C11.7267 20.8047 11.7267 20.8047 11.7174 20.8139L11.6242 20.8968C11.6056 20.9061 11.5963 20.9153 11.587 20.9337L11.5311 20.9798C11.5218 20.9706 11.5125 20.9706 11.5031 20.9798ZM12.5184 20.4175L12.6581 20.4544C12.7513 20.482 12.7699 20.4728 12.8537 20.482L13.0586 20.5005C13.0773 20.5005 13.0959 20.5005 13.1145 20.5005L13.3287 20.5189L13.3194 20.5742C13.3194 20.5834 13.3194 20.5834 13.3194 20.5927C13.2356 20.5834 13.2449 20.6848 13.2915 20.6941C13.2915 20.7033 13.2635 20.7586 13.2635 20.7678C13.2542 20.7678 13.1425 20.7125 13.1331 20.7033L13.0866 20.6848C13.0679 20.6756 13.0586 20.6664 13.04 20.6664L12.7513 20.5281C12.7047 20.5097 12.7047 20.5097 12.6488 20.4913C12.6395 20.4913 12.6302 20.4913 12.6209 20.482L12.5184 20.4544C12.5184 20.436 12.5184 20.4267 12.5184 20.4175ZM11.6894 21.1642C11.6894 21.1642 11.6335 21.1181 11.6335 21.1089C11.6429 21.0996 11.6615 21.0628 11.6242 21.0351C11.5963 21.0075 11.5683 21.0351 11.559 21.0351C11.5497 21.0167 11.5125 20.989 11.5125 20.9798L11.559 20.9522C11.6056 20.9153 11.6708 20.8784 11.7174 20.8508L11.8105 20.7862C11.8198 20.777 11.8291 20.777 11.8291 20.7678C11.8385 20.7678 11.8385 20.7586 11.8385 20.7586C11.8385 20.7586 11.8478 20.7586 11.8478 20.7494L11.9968 20.648C12.0061 20.6387 12.0061 20.6387 12.0154 20.6295C12.0247 20.6203 12.0341 20.6111 12.0527 20.5927C12.062 20.5834 12.062 20.5834 12.0713 20.5742C12.0806 20.565 12.0806 20.565 12.0899 20.5558L12.1645 20.4913C12.1738 20.4913 12.1831 20.5005 12.1831 20.5097C12.1738 20.5189 12.1551 20.5374 12.1458 20.5466L12.0434 20.6572L11.8943 20.86C11.8664 20.8968 11.8198 20.9614 11.7919 21.0075C11.7826 21.0167 11.7826 21.0167 11.7733 21.0259C11.7639 21.0351 11.7639 21.0351 11.7546 21.0443C11.7453 21.0535 11.7453 21.0535 11.736 21.0628C11.7267 21.072 11.7267 21.072 11.7174 21.0812C11.7081 21.0904 11.7081 21.0904 11.6987 21.0996C11.7081 21.1365 11.6987 21.1549 11.6894 21.1642ZM12.4998 20.4636L12.5836 20.5097C12.5929 20.5097 12.5929 20.5189 12.6022 20.5189C12.6861 20.565 12.6674 20.5558 12.7606 20.5927L12.8817 20.6387C12.891 20.6387 12.9003 20.648 12.9096 20.648C12.9282 20.6572 12.9375 20.6572 12.9562 20.6664L13.2449 20.7678C13.2449 20.777 13.217 20.8231 13.217 20.8323C13.1983 20.8323 13.1797 20.8139 13.1518 20.8508C13.1238 20.8876 13.1518 20.9245 13.1611 20.9245C13.1611 20.9337 13.1518 20.9522 13.1425 20.9614L13.1145 20.989C13.0959 20.9798 13.0866 20.9706 13.0773 20.9614L12.7699 20.6941C12.7606 20.6848 12.7606 20.6848 12.7513 20.6756L12.6581 20.5927L12.4811 20.4913C12.4905 20.482 12.4998 20.4728 12.4998 20.4636ZM11.9223 21.3024C11.913 21.3024 11.8757 21.2748 11.8571 21.2748C11.8571 21.2563 11.8757 21.2379 11.8385 21.2103C11.8198 21.1918 11.7826 21.1918 11.7733 21.2103C11.7733 21.2103 11.7733 21.2103 11.7733 21.2195C11.7639 21.2195 11.7081 21.1826 11.7081 21.1734C11.7174 21.1549 11.7453 21.1273 11.7546 21.1181L11.7826 21.0812C11.7919 21.072 11.7919 21.072 11.8012 21.0628L11.913 20.9337C11.9223 20.9245 11.9223 20.9245 11.9316 20.9153C11.9409 20.9061 11.9409 20.9061 11.9502 20.8968L12.0341 20.8047C12.0527 20.777 12.0993 20.7309 12.1179 20.7125L12.1551 20.648C12.1738 20.6203 12.1924 20.5834 12.211 20.5558C12.2203 20.5558 12.2297 20.565 12.239 20.565L12.1458 20.7309C12.1365 20.7401 12.1458 20.7401 12.1365 20.7494L12.0806 20.9061C12.0806 20.9153 12.0806 20.9153 12.0713 20.9153L11.9223 21.3024ZM12.4532 20.5281C12.4532 20.5189 12.4625 20.5097 12.4718 20.5097L12.5463 20.5834C12.5557 20.5927 12.565 20.6111 12.5836 20.6203C12.6395 20.6756 12.6115 20.648 12.6581 20.6848L13.1145 21.0075L13.0866 21.0351C13.0773 21.0443 13.0679 21.0628 13.0586 21.0628C13.0586 21.0535 13.0586 21.0628 13.0493 21.0535C13.0121 21.0259 12.9655 21.0628 12.9655 21.0996C12.9655 21.1181 12.9748 21.1181 12.9748 21.1273C12.9562 21.1365 12.9282 21.1642 12.9189 21.1734L12.5929 20.6848C12.5836 20.6756 12.5836 20.6756 12.5743 20.6664L12.4532 20.5281ZM12.1738 21.3762L12.1365 21.367C12.1272 21.367 12.1272 21.367 12.1179 21.367C12.1086 21.367 12.1086 21.367 12.0993 21.367C12.1086 21.284 12.0061 21.2932 11.9968 21.3393C11.9875 21.3393 11.9875 21.3393 11.9782 21.3301C11.9595 21.3209 11.9409 21.3209 11.9223 21.3116C11.9223 21.3024 11.9875 21.1734 11.9968 21.1549L12.1272 20.8876C12.1365 20.86 12.1831 20.7678 12.1924 20.7494L12.2297 20.6203C12.2297 20.6019 12.239 20.5834 12.2483 20.565C12.2576 20.565 12.2669 20.565 12.2762 20.5742C12.2762 20.5834 12.2762 20.5927 12.2669 20.6019L12.239 20.7125C12.239 20.7217 12.239 20.7217 12.2297 20.7309C12.2297 20.7401 12.2297 20.7401 12.2203 20.7586C12.211 20.7862 12.1831 21.1549 12.1738 21.2195V21.3762ZM12.4066 20.5558C12.4159 20.5466 12.4253 20.5466 12.4346 20.5466L12.4905 20.6387C12.4998 20.6572 12.5091 20.6664 12.5184 20.6848C12.5463 20.7309 12.5277 20.7125 12.565 20.7494L12.5743 20.7586L12.6302 20.8231C12.6395 20.8323 12.6395 20.8323 12.6488 20.8415L12.8071 21.0351C12.8165 21.0443 12.8165 21.0443 12.8258 21.0535L12.8351 21.0628L12.8723 21.1089C12.8817 21.1273 12.9375 21.1734 12.9375 21.1826C12.9282 21.1918 12.8817 21.2195 12.8723 21.2287C12.8537 21.1826 12.7513 21.201 12.7792 21.284L12.7047 21.3116L12.6395 21.1181C12.6302 21.0996 12.6302 21.0904 12.6209 21.072L12.537 20.8323C12.5091 20.7586 12.5184 20.7586 12.4811 20.6941C12.4811 20.6848 12.4718 20.6848 12.4718 20.6756L12.4159 20.5834C12.4159 20.565 12.4159 20.5558 12.4066 20.5558ZM12.3321 20.777C12.3321 20.8047 12.3414 20.8231 12.3414 20.8508C12.3414 20.8692 12.3507 20.8692 12.3507 20.8876L12.388 21.0812C12.388 21.0996 12.3973 21.1365 12.3973 21.1549L12.4346 21.3854C12.4066 21.3854 12.3787 21.3854 12.3601 21.3854C12.3507 21.3116 12.2576 21.3301 12.2576 21.3854C12.239 21.3854 12.1924 21.3762 12.1831 21.3762C12.1831 21.367 12.1831 21.3577 12.1924 21.3485C12.1924 21.3393 12.1924 21.3301 12.2017 21.3209C12.211 21.284 12.2297 21.1734 12.239 21.1273C12.239 21.1181 12.239 21.1089 12.239 21.0996C12.239 21.0904 12.239 21.0812 12.2483 21.072L12.2669 20.9798C12.2669 20.9614 12.2762 20.9522 12.2762 20.9337C12.2762 20.9245 12.2762 20.9153 12.2762 20.9061L12.2949 20.8139C12.3042 20.7494 12.3042 20.6848 12.3042 20.6295C12.3042 20.6111 12.3042 20.5927 12.3042 20.5742C12.3135 20.5742 12.3228 20.5742 12.3321 20.5742V20.7217C12.3321 20.7401 12.3321 20.7586 12.3321 20.777ZM12.3601 20.5742C12.3694 20.5742 12.3787 20.5742 12.388 20.565C12.388 20.5834 12.3973 20.6019 12.4066 20.6203C12.4159 20.6572 12.4439 20.7494 12.4532 20.777L12.6209 21.1365C12.6395 21.1642 12.6581 21.2195 12.6767 21.2471L12.6954 21.2932C12.6954 21.3024 12.7047 21.3116 12.7047 21.3209C12.6954 21.3301 12.6488 21.3485 12.6302 21.3485C12.6209 21.3116 12.565 21.3024 12.537 21.3301C12.5277 21.3393 12.5277 21.3577 12.5277 21.367C12.4998 21.3762 12.4811 21.3762 12.4532 21.3854C12.4532 21.3485 12.4439 21.2932 12.4439 21.2748C12.4439 21.2563 12.4439 21.2471 12.4439 21.2379L12.4346 21.0904C12.4346 21.072 12.4346 21.072 12.4346 21.0535C12.4346 21.0443 12.4346 21.0259 12.4253 21.0167L12.4066 20.7862L12.3601 20.5742Z" fill="#004FA3"/>
<path id="Vector_11" fill-rule="evenodd" clip-rule="evenodd" d="M11.7732 19.1455L11.9688 19.0625C13.692 18.0762 14.642 18.5647 16.4397 16.3893C17.5854 15.0066 17.6878 13.541 17.3432 11.762C17.3246 11.6514 17.2873 11.4946 17.2594 11.384C17.2407 11.3103 17.2221 11.2642 17.1942 11.1905C17.1103 11.0061 17.1755 11.1075 17.0917 11.0153C17.0824 11.0338 17.0638 11.043 17.0638 11.0706L16.8588 11.5223C15.5455 14.5458 13.5057 15.2279 10.432 16.5184C7.74948 17.6429 6.61313 18.7952 6.51999 21.4776C6.50136 22.1413 6.50136 23.6898 6.89256 24.1876C7.12542 23.7267 7.08816 23.3672 7.58182 22.5653C8.43873 21.1365 10.1526 19.6617 11.7732 19.1455Z" fill="#F58220"/>
<path id="Vector_12" fill-rule="evenodd" clip-rule="evenodd" d="M13.2449 21.3854L12.8816 21.5421C10.5903 22.3901 8.2897 24.0033 7.5073 26.3169C7.16267 27.3401 7.33033 28.1513 7.6377 29.322C7.80536 29.156 7.79604 29.1284 7.87056 28.8611C8.19656 27.7365 9.10936 26.5843 9.9849 25.8468C13.0307 23.2935 15.5083 24.2245 17.604 21.0996C18.3212 20.0396 18.4143 18.9058 18.2653 17.6337C18.2373 17.3756 18.1535 16.7119 18.0417 16.4723C17.93 16.2511 18.0231 16.4078 17.9393 16.3156C17.8834 17.6983 17.3152 18.6938 16.4863 19.5142C15.5362 20.4636 14.7911 20.9522 13.2449 21.3854Z" fill="#00A651"/>
<path id="Vector_13" fill-rule="evenodd" clip-rule="evenodd" d="M38.2817 19.6709C38.2817 19.5234 38.2258 19.3759 38.142 19.21L38.1233 19.1639L38.1047 19.1178C37.6669 18.3251 37.1081 17.4955 36.9404 17.3019C36.9032 17.2466 36.8659 17.1267 36.8566 16.9977C36.838 16.8594 36.8473 16.7212 36.838 16.6474C36.8286 16.5829 36.7914 16.5368 36.7448 16.4723C36.6982 16.4077 36.633 16.334 36.5678 16.251C36.4747 16.1312 36.3816 15.9929 36.2977 15.8823C36.2605 15.827 36.2232 15.7809 36.1953 15.7441C36.1673 15.7072 36.158 15.6888 36.1487 15.6795C36.1114 15.615 36.0835 15.5781 36.0649 15.5413C36.0649 15.5413 36.0649 15.5321 36.0556 15.5321L36.0462 15.5228V15.5044C36.0556 15.4491 36.0742 15.3661 36.0742 15.2555C36.0742 15.2555 36.0742 15.2555 36.0742 15.2463V15.2371C36.0742 14.9237 35.9438 14.4443 35.3663 14.1217C35.2266 14.0388 35.0962 13.965 34.9844 13.9005L34.9285 13.8728L34.9751 13.8268C35.0869 13.7254 35.1521 13.5779 35.1521 13.4304C35.1521 13.4304 35.1521 13.4304 35.1521 13.4212C35.1521 13.2645 35.0869 13.1078 34.9751 13.0064L34.9565 12.9879C33.3451 11.4578 31.1283 10.5175 28.6973 10.5175C28.6973 10.5175 28.6973 10.5175 28.688 10.5175C26.2476 10.5175 24.0308 11.467 22.4195 12.9971H22.4101C22.2891 13.1078 22.2239 13.2552 22.2239 13.4119V13.4212C22.2239 13.5318 22.2611 13.6332 22.317 13.7161L22.3449 13.7622L22.2984 13.7899C22.2239 13.8268 22.1307 13.8728 22.0376 13.9281C21.8885 14.0203 21.7395 14.1217 21.6836 14.2508C21.6371 14.3614 21.6371 14.4075 21.5998 14.5089C21.5625 14.6011 21.4973 14.7209 21.4321 14.8315C21.3669 14.9421 21.3111 15.0343 21.2924 15.0804C21.2645 15.1449 21.2552 15.2094 21.2552 15.2832C21.2552 15.3661 21.2645 15.4491 21.2738 15.4952V15.5228L21.2459 15.5413C21.0596 15.6703 20.6684 16.0298 20.6591 16.6843C20.6591 16.7488 20.6591 16.8226 20.6684 16.8963V16.9147L20.6591 16.9332C20.4448 17.1913 19.5041 18.3435 19.2153 19.0533C19.1967 19.0994 19.1595 19.1362 19.1315 19.2008C19.0943 19.2653 19.0663 19.3482 19.0663 19.4589V19.4681V19.4773C19.0663 19.6156 19.1129 19.7538 19.2712 19.9013L19.3271 19.9474L19.3364 19.9566C19.3457 19.9658 19.3457 19.9658 19.3644 19.9751C19.383 19.9843 19.4016 20.0027 19.4389 20.0211C19.6531 20.1502 20.1095 20.4636 20.3331 20.9521C20.3331 20.9521 20.3331 20.9614 20.3424 20.9706C20.3517 20.989 20.3517 20.9982 20.3796 21.0167C20.3983 21.0259 20.3889 21.0259 20.4076 21.0259C20.4262 21.0351 20.4448 21.0351 20.4728 21.0351C20.5473 21.0443 20.6497 21.0535 20.6777 21.0535H20.687C20.6963 21.0535 20.7056 21.0535 20.7149 21.0443L20.7429 21.0351L20.7615 21.0628C20.7708 21.072 20.7801 21.0812 20.7801 21.0904C20.8826 21.1918 21.0782 21.2932 21.4135 21.3024L21.3576 21.2748C21.3017 21.2287 21.1993 21.1273 21.0968 20.86L21.0782 20.8231L21.1155 20.8047C21.3297 20.694 21.6464 20.5466 22.0189 20.4636H22.0376L22.0562 20.4728C22.1587 20.5189 22.2518 20.5742 22.3077 20.6387L22.3263 20.6572L22.317 20.6848C22.317 20.6848 22.2891 20.7493 22.2611 20.86C22.2332 20.9706 22.2052 21.1181 22.2052 21.2932C22.2052 21.3946 22.2145 21.5144 22.2425 21.625L22.2518 21.6527L22.2239 21.6711C22.2239 21.6711 22.2145 21.6804 22.1866 21.6988C22.168 21.7172 22.1307 21.7449 22.1028 21.7725C22.0376 21.8371 21.9631 21.9292 21.9165 22.0398L21.9072 22.0583L21.8885 22.0675C21.8699 22.0767 21.8606 22.0859 21.842 22.0952L21.7954 22.1228L21.7768 22.0767C21.7581 22.0398 21.7395 21.9938 21.7209 21.9569C21.6557 21.8002 21.6277 21.6619 21.6091 21.6158V21.5974C21.4973 21.8094 21.4601 22.003 21.4601 22.1505C21.4601 22.1781 21.4601 22.2058 21.4601 22.2334L21.4694 22.3072L21.4228 22.2611C21.4135 22.2611 21.3949 22.2519 21.3856 22.2519C21.3763 22.2519 21.3763 22.2519 21.3576 22.2519C21.3204 22.2611 21.2924 22.2887 21.2831 22.3072C21.2738 22.3256 21.2645 22.344 21.2645 22.344C21.2645 22.344 21.2645 22.344 21.2645 22.3533C21.2645 22.3625 21.2645 22.3717 21.2552 22.3809C21.2552 22.4086 21.2459 22.4362 21.2365 22.4823C21.2272 22.5653 21.2179 22.6759 21.2179 22.7957C21.2179 23.0169 21.2459 23.2566 21.4042 23.4225C21.6557 23.6622 22.0935 24.1046 22.1214 24.1323C22.1307 24.1415 22.1866 24.1876 22.2891 24.2245L22.3449 24.2429L22.3077 24.289C22.2425 24.3812 22.2052 24.4918 22.2052 24.6116C22.2052 24.7683 22.2704 24.925 22.3822 25.0264L22.4008 25.0449C23.7887 26.363 25.6329 27.2479 27.6727 27.4599H27.7006L27.71 27.4876C27.8497 27.8563 28.2222 28.1236 28.6507 28.1236C29.0792 28.1236 29.4517 27.8655 29.5914 27.4968L29.6008 27.4692H29.6287C31.6872 27.2571 33.5314 26.3722 34.9285 25.0449C34.9285 25.0449 34.9751 24.9896 35.0217 24.9158C35.0682 24.8421 35.1148 24.7407 35.1148 24.6301C35.1148 24.6301 35.1148 24.6301 35.1148 24.6208C35.1148 24.5102 35.0776 24.3996 35.0124 24.3074L34.9751 24.2521L35.0403 24.2337C35.1521 24.1968 35.2359 24.1415 35.2732 24.0862C35.2918 24.0678 35.2918 24.0586 35.3104 24.0309C35.357 23.9479 35.4222 23.7912 35.4967 23.6345C35.5712 23.4778 35.655 23.3303 35.7016 23.2658C35.7668 23.1829 35.9438 23.063 35.9531 22.851C35.9531 22.8418 35.9531 22.8326 35.9531 22.8326C35.9438 22.7496 35.9158 22.6759 35.8786 22.6114C35.86 22.5837 35.8506 22.556 35.832 22.5284C35.832 22.5192 35.8227 22.5192 35.8227 22.51L35.8134 22.4915L35.8227 22.4731C35.8506 22.4086 35.8879 22.3072 35.8879 22.1597C35.8879 22.0214 35.86 21.8647 35.7575 21.6711C35.7575 21.6711 35.7575 21.6711 35.7575 21.6804C35.7575 21.6804 35.7575 21.6896 35.7575 21.6988C35.7575 21.7172 35.7482 21.7357 35.7389 21.7725C35.7202 21.8278 35.7016 21.9108 35.6644 21.9938C35.6364 22.0675 35.5992 22.1412 35.5619 22.215L35.534 22.2611L35.4874 22.2334C34.9472 21.8463 34.8913 21.2287 34.8913 20.9614C34.8913 20.8784 34.9006 20.8323 34.9006 20.8323V20.8047L34.9285 20.7954C35.1241 20.7217 35.329 20.694 35.5153 20.694C35.6737 20.694 35.832 20.7125 35.9624 20.7401H35.9717L35.981 20.7494C35.9997 20.7678 36.0276 20.7862 36.0462 20.7954C36.0556 20.8047 36.0742 20.8139 36.0835 20.8231L36.1208 20.8415L36.1021 20.8784C36.0276 21.0259 35.9624 21.1273 35.9065 21.1918C35.86 21.2471 35.8134 21.284 35.7854 21.3024C35.7668 21.3116 35.7575 21.3209 35.7482 21.3209H35.7389C36.0835 21.2932 36.3164 21.201 36.4654 21.1088L36.484 21.0996L36.5026 21.1088C36.5213 21.1181 36.5399 21.1181 36.5678 21.1181C36.5865 21.1181 36.5958 21.1181 36.6144 21.1181C36.6144 21.1181 36.6144 21.1181 36.6237 21.1181C36.7448 21.1181 36.8752 21.0628 36.9777 20.9614C37.3316 20.5742 37.8812 20.2147 38.1047 19.9751C38.1885 19.8921 38.2351 19.7907 38.2444 19.6801L38.2817 19.6709Z" fill="#FFD100"/>
<path id="Vector_14" fill-rule="evenodd" clip-rule="evenodd" d="M37.4527 18.6385C37.4527 18.6385 37.4154 18.7767 37.0335 18.5279C37.0335 18.5279 37.2664 18.8228 37.4434 18.8689C37.611 18.915 37.5179 18.6846 37.4527 18.6385ZM37.0988 18.0762C37.0988 18.0762 37.0988 18.2421 36.7634 18.1315C36.7634 18.1315 36.9218 18.3712 37.1453 18.4172C37.3875 18.4726 37.2292 18.2145 37.0988 18.0762ZM36.959 17.8734C36.7076 17.5416 36.5865 17.4309 36.484 16.8133C36.4002 16.2603 35.1707 16.8133 35.1707 16.8133C34.5653 16.9608 34.3417 16.8041 34.2486 16.6935C34.2486 16.6935 34.2206 16.6751 34.2393 16.7027C34.5746 17.4125 35.3011 17.0438 35.3011 17.0438L35.4315 17.1728C35.4036 17.0991 35.3942 16.9885 35.4129 16.8318C35.4408 16.8226 35.4874 16.8041 35.5433 16.7857C35.5805 16.8318 35.5805 16.8594 35.5805 16.924C35.5805 16.9885 35.5433 17.0714 35.5433 17.1267C35.5433 17.1821 35.5805 17.2005 35.5805 17.2005C35.7202 17.1175 35.8227 16.924 35.8693 16.8041C35.9065 16.8133 35.9438 16.8226 35.9717 16.8318C35.9065 17.1728 35.6737 17.3203 35.5433 17.2835C35.534 17.2835 35.534 17.2835 35.5246 17.2742C35.0962 17.4586 35.3477 17.5139 35.3477 17.5139C35.7016 17.5139 36.0183 17.2835 36.0183 17.2835C36.1394 17.3388 36.2605 17.6153 36.2605 17.6153C36.3909 17.6337 36.6144 17.7443 36.6144 17.7443C36.8566 17.9656 36.959 17.8734 36.959 17.8734ZM22.0096 19.3943C22.0003 19.339 21.1807 19.551 20.51 20.0857C20.51 20.0857 20.361 20.1963 20.3703 20.2516C20.3889 20.353 20.51 20.2885 20.538 20.2608C21.0596 19.7538 22.0189 19.4496 22.0096 19.3943ZM31.594 24.3351L31.8269 24.8236L32.1342 25.3491V25.3583L31.3053 24.4641L31.1283 24.5471L31.7896 25.9206L31.9759 25.8376L31.7337 25.3306L31.4822 24.879L31.4264 24.796V24.7868L32.2646 25.6901L32.4416 25.6072L31.7803 24.2337L31.594 24.3351ZM20.1002 18.2513C20.0257 18.3712 19.9605 18.4726 19.8953 18.5924C19.8301 18.7214 19.7183 18.9242 19.6717 19.0164C19.7928 19.0348 19.9325 19.0164 20.0723 18.915C20.0909 18.5186 20.4821 17.6983 20.4821 17.6983C20.3703 17.8365 20.212 18.0946 20.1002 18.2513ZM20.7801 20.4636C20.7801 20.4636 20.6591 20.5558 20.6684 20.6019C20.687 20.6848 20.7801 20.6295 20.8081 20.6019C21.2272 20.1779 21.991 19.9013 21.991 19.8644C21.9724 19.8184 21.3204 20.0119 20.7801 20.4636ZM26.0241 13.9189L26.5922 13.6793L25.7353 11.7527L25.1672 11.9924L25.1765 12.0201L26.0241 13.9189ZM30.3645 12.398L30.8675 13.7899L31.4357 13.9742L32.1249 11.9832L31.5381 11.7896L31.1562 12.905L30.6533 11.5131L30.0851 11.3287L29.3958 13.3198L29.9826 13.5134L30.3645 12.398ZM27.8869 13.458C27.9335 13.458 27.9708 13.458 28.0173 13.4488C28.66 13.3935 29.0978 12.9326 29.0978 12.3243C29.0978 12.2874 29.0978 12.2413 29.0885 12.1952C29.0326 11.6053 28.4924 11.2273 27.9242 11.2273C27.8869 11.2273 27.8497 11.2273 27.8124 11.2365C27.2349 11.2919 26.732 11.7343 26.732 12.315C26.732 12.3519 26.732 12.3796 26.7413 12.4164C26.7878 13.034 27.2629 13.458 27.8869 13.458ZM27.859 11.8081C27.8776 11.8081 27.8962 11.8081 27.9149 11.8081C28.1943 11.8081 28.4365 12.0108 28.4551 12.2597C28.4551 12.2782 28.4551 12.2966 28.4551 12.3243C28.4551 12.6192 28.2409 12.8497 27.9614 12.8773C27.9428 12.8773 27.9242 12.8773 27.9149 12.8773C27.6354 12.8773 27.3933 12.6745 27.3653 12.3611C27.3653 12.3519 27.3653 12.3335 27.3653 12.3243C27.356 12.0754 27.5702 11.8357 27.859 11.8081ZM31.8269 13.9927C31.92 14.2416 32.0877 14.4628 32.3112 14.6103C32.4696 14.7209 32.6652 14.7946 32.8608 14.7946C32.8887 14.7946 32.9073 14.7946 32.9353 14.7946C33.1681 14.7762 33.3358 14.6195 33.4569 14.4536C33.5314 14.343 33.5686 14.2416 33.5686 14.1402C33.5686 13.9742 33.4755 13.8175 33.3544 13.6701L33.2613 13.5594C33.224 13.5134 33.1961 13.4765 33.1774 13.4304C33.1681 13.4027 33.1588 13.3843 33.1588 13.3659C33.1588 13.3106 33.2054 13.2737 33.2799 13.2737C33.3172 13.2737 33.3637 13.2829 33.4103 13.3198C33.5128 13.3935 33.578 13.4949 33.6152 13.624L33.6245 13.6608L34.1182 13.4027L34.1089 13.3751C34.0064 13.1815 33.8388 12.9787 33.6525 12.8497C33.5034 12.7483 33.3544 12.7022 33.1961 12.7022C32.9725 12.7022 32.7583 12.8128 32.6093 13.0156C32.5254 13.1354 32.4789 13.246 32.4789 13.3474C32.4789 13.5226 32.5906 13.6701 32.7397 13.8452C32.7956 13.9097 32.898 14.0203 32.8887 14.1033C32.8887 14.1217 32.8794 14.1402 32.8701 14.1678C32.8328 14.2139 32.7956 14.2323 32.749 14.2323C32.7024 14.2323 32.6465 14.2139 32.6 14.177C32.4509 14.0756 32.3857 13.9189 32.3392 13.753L32.3298 13.7161L31.8176 13.9742L31.8269 13.9927ZM24.6456 14.8684L25.6329 14.0849L25.2882 13.6793L24.7853 14.0756L23.7607 12.8589L23.2764 13.246L23.2857 13.2737L24.6456 14.8684ZM37.3037 18.9334C37.6762 19.3206 37.6762 19.0717 37.6762 19.0717C37.5924 19.1362 37.3037 18.9334 37.3037 18.9334ZM38.3375 19.6709C38.3375 19.4957 38.263 19.3298 38.1699 19.1455C37.7321 18.3343 37.1453 17.4862 36.9777 17.2835C36.9497 17.2374 36.9125 17.1267 36.8938 16.9977C36.8752 16.8594 36.8845 16.7304 36.8752 16.6382C36.8659 16.5552 36.8193 16.5092 36.7727 16.4446C36.7262 16.3801 36.661 16.3064 36.5958 16.2234C36.5026 16.1036 36.4095 15.9653 36.3257 15.8547C36.2512 15.7533 36.1859 15.6611 36.1859 15.6519C36.1487 15.5874 36.1114 15.5413 36.1021 15.5228C36.1021 15.5228 36.1021 15.5136 36.0928 15.5136C36.1021 15.4583 36.1207 15.3661 36.1207 15.2555V15.2463C36.1207 14.9237 35.9904 14.4167 35.3849 14.0756C35.2452 13.9927 35.1148 13.9189 35.003 13.8544C35.1241 13.7438 35.1893 13.5871 35.1893 13.4212C35.1893 13.246 35.1148 13.0893 34.9937 12.9695L34.9751 12.9511C33.3544 11.4209 31.1283 10.4622 28.6786 10.4622C26.229 10.4622 24.0029 11.4117 22.3729 12.9511L22.3636 12.9603C22.2332 13.0801 22.1587 13.2368 22.1587 13.412C22.1587 13.5318 22.1959 13.6424 22.2611 13.7438C22.1866 13.7807 22.0935 13.8268 22.0003 13.8821C21.8513 13.9742 21.6929 14.0756 21.6277 14.2231C21.5718 14.343 21.5812 14.389 21.5439 14.4904C21.5066 14.5826 21.4414 14.7025 21.3856 14.8131C21.3204 14.9237 21.2645 15.0159 21.2458 15.0712C21.2179 15.1449 21.2086 15.2187 21.2086 15.2924C21.2086 15.3754 21.2179 15.4583 21.2272 15.5136C21.0316 15.6519 20.6218 16.0206 20.6218 16.6935C20.6218 16.7673 20.6218 16.8318 20.6311 16.9055C20.4169 17.1728 19.4761 18.3158 19.1781 19.0441C19.1595 19.0994 19.0291 19.2284 19.0291 19.4681V19.4773C19.0291 19.6248 19.0756 19.7907 19.2526 19.9474L19.3085 20.0027L19.3178 20.0119C19.3271 20.0119 19.3457 20.0396 19.4203 20.0765C19.6345 20.2055 20.0816 20.5189 20.2958 20.989C20.2958 20.9982 20.3051 20.9982 20.3051 21.0075C20.3144 21.0259 20.3237 21.0443 20.3517 21.072C20.3796 21.0904 20.3796 21.0904 20.3889 21.0904C20.4169 21.0996 20.4355 21.0996 20.4635 21.0996C20.5473 21.1089 20.6684 21.1181 20.6684 21.1181H20.687C20.7056 21.1181 20.7149 21.1089 20.7336 21.1089C20.7429 21.1181 20.7522 21.1273 20.7615 21.1365C20.8733 21.2471 21.0782 21.3577 21.4228 21.3577C21.4508 21.3577 21.4694 21.3393 21.4694 21.3116C21.4694 21.284 21.4508 21.2656 21.4321 21.2563C21.4135 21.2471 21.2924 21.1918 21.1527 20.8415C21.3669 20.7309 21.6836 20.5927 22.0376 20.5005C22.14 20.5466 22.2238 20.6019 22.2797 20.6572C22.2797 20.6572 22.0934 21.1181 22.2052 21.6251C22.2052 21.6251 21.9817 21.7818 21.8885 22.0122C21.8699 22.0214 21.8606 22.0306 21.842 22.0399C21.8233 22.003 21.8047 21.9569 21.7954 21.92C21.7209 21.7265 21.6836 21.5605 21.6836 21.5605C21.6836 21.5421 21.665 21.5237 21.637 21.5237C21.6184 21.5237 21.5905 21.5329 21.5812 21.5513C21.4694 21.7725 21.4321 21.9661 21.4321 22.132C21.4321 22.1597 21.4321 22.1873 21.4321 22.215C21.4135 22.2058 21.3949 22.2058 21.3763 22.2058C21.3669 22.2058 21.3576 22.2058 21.3483 22.2058C21.2924 22.215 21.2552 22.2611 21.2365 22.2795C21.2179 22.3072 21.2179 22.3256 21.2179 22.3348C21.2179 22.3348 21.1713 22.5468 21.1713 22.7957C21.1713 23.0169 21.1993 23.275 21.3763 23.4594C21.6371 23.7083 22.0934 24.1692 22.0934 24.1692L22.1028 24.1784C22.1121 24.1876 22.1773 24.2429 22.2797 24.2798C22.2052 24.3812 22.168 24.501 22.168 24.6301C22.168 24.6301 22.168 24.6301 22.168 24.6393C22.168 24.8144 22.2425 24.9711 22.3636 25.091L22.3822 25.1094C23.7793 26.4368 25.6329 27.3217 27.682 27.5429C27.831 27.9301 28.2222 28.2066 28.6693 28.2066C29.1164 28.2066 29.5076 27.9301 29.6566 27.5429C31.7244 27.3309 33.578 26.4368 34.9937 25.1002L35.003 25.091C35.003 25.091 35.0496 25.0357 35.1055 24.9527C35.1521 24.8697 35.208 24.7683 35.208 24.6393V24.6301C35.208 24.5102 35.1707 24.3904 35.1055 24.289C35.2266 24.2521 35.3104 24.1876 35.3663 24.1231C35.3849 24.1047 35.3942 24.0862 35.4035 24.0586C35.4501 23.9756 35.5153 23.8189 35.5898 23.6622C35.6644 23.5055 35.7482 23.358 35.7948 23.3027C35.8413 23.2382 36.0462 23.0999 36.0555 22.8602C36.0555 22.851 36.0555 22.8418 36.0555 22.8418C36.0462 22.7496 36.009 22.6667 35.981 22.6021C35.9624 22.5653 35.9531 22.5376 35.9345 22.5192C35.9345 22.51 35.9251 22.51 35.9251 22.5007C35.9531 22.4362 35.9903 22.3256 35.9903 22.1689C35.9903 22.0306 35.9531 21.8555 35.86 21.6619C35.8506 21.6435 35.832 21.6343 35.8041 21.6343C35.7854 21.6343 35.7668 21.6527 35.7575 21.6711C35.7575 21.6711 35.7296 21.8094 35.6644 21.9846C35.6364 22.0583 35.5992 22.132 35.5619 22.2058C34.882 21.7265 34.9844 20.8508 34.9844 20.8508C35.329 20.7125 35.7016 20.7401 35.9903 20.7954C36.009 20.8139 36.0369 20.8323 36.0649 20.8415C36.0742 20.8508 36.0928 20.86 36.1021 20.8692C36.0369 21.0167 35.9624 21.1089 35.9158 21.1734C35.8693 21.2287 35.832 21.2563 35.8041 21.2748C35.7947 21.284 35.7854 21.2932 35.7761 21.2932H35.7668C35.7389 21.3024 35.7295 21.3301 35.7389 21.3485C35.7482 21.367 35.7668 21.3854 35.7854 21.3854C36.1394 21.3577 36.3722 21.2656 36.5399 21.1642C36.5585 21.1734 36.5865 21.1734 36.6051 21.1734C36.6237 21.1734 36.633 21.1734 36.6517 21.1734H36.661C36.8007 21.1734 36.9404 21.1181 37.0522 20.9982C37.3968 20.6203 37.9464 20.2608 38.1792 20.0119C38.2817 19.9382 38.3375 19.8091 38.3375 19.6709ZM22.6057 13.2092L22.6244 13.1999C24.1892 11.7159 26.3221 10.8033 28.6786 10.8033H28.688C31.0445 10.8033 33.1774 11.7159 34.7422 13.1999L34.7609 13.2092C34.8168 13.2553 34.8447 13.329 34.8447 13.412C34.8447 13.4857 34.8168 13.5594 34.7609 13.6055L34.6025 13.7622C34.5746 13.7899 34.556 13.836 34.556 13.8821C34.556 13.8913 34.556 13.9097 34.556 13.9189C34.5746 13.9927 34.5839 14.0756 34.5839 14.1586C34.5839 14.7209 34.1089 15.1818 33.5314 15.1818C33.4569 15.1818 33.3824 15.1726 33.3078 15.1541H33.2985C33.2892 15.1541 33.2706 15.1449 33.252 15.1449C33.2054 15.1449 33.1588 15.1633 33.1309 15.2002L32.9912 15.3385C32.9353 15.3938 32.8701 15.4307 32.7862 15.4307C32.7024 15.4307 32.6279 15.3938 32.5813 15.3385C32.0225 14.7946 31.3425 14.3706 30.5788 14.1033C29.992 13.8913 29.3586 13.7807 28.6973 13.7807C28.036 13.7807 27.4026 13.9005 26.8158 14.1033C26.052 14.3706 25.3721 14.8039 24.8132 15.3477C24.7573 15.403 24.6828 15.4399 24.6083 15.4399C24.5245 15.4399 24.45 15.403 24.4034 15.3477L24.2637 15.2094C24.2357 15.1818 24.1892 15.1633 24.1426 15.1633C24.124 15.1633 24.1146 15.1633 24.096 15.1726H24.0867C24.0122 15.191 23.9377 15.2002 23.8632 15.2002C23.2857 15.2002 22.8106 14.7393 22.8106 14.177C22.8106 14.0941 22.82 14.0111 22.8386 13.9374C22.8386 13.9282 22.8386 13.9097 22.8386 13.9005C22.8386 13.8544 22.82 13.8083 22.792 13.7807L22.6337 13.624C22.5778 13.5687 22.5498 13.5041 22.5498 13.4304C22.5219 13.329 22.5498 13.2645 22.6057 13.2092ZM33.5034 15.7994C33.5034 15.7994 33.5128 16.2511 33.8388 16.4262C33.7177 16.4262 33.2892 16.4907 33.5034 15.7994ZM33.6897 19.0256C33.6897 20.3714 33.1309 21.579 32.2274 22.4639C31.3239 23.3396 30.0665 23.8834 28.688 23.8834C27.3094 23.8834 26.052 23.3396 25.1485 22.4639C24.245 21.5882 23.6862 20.3714 23.6862 19.0256C23.6862 17.6798 24.245 16.4723 25.1485 15.5874C26.052 14.7117 27.3094 14.1678 28.688 14.1678C30.0665 14.1678 31.3239 14.7117 32.2274 15.5874C33.1309 16.4723 33.6897 17.689 33.6897 19.0256ZM21.2645 21.2379C21.0409 21.2103 20.9105 21.1273 20.836 21.0535C20.8267 21.0443 20.8267 21.0443 20.8267 21.0351L20.8547 21.0167C20.8547 21.0167 20.9105 20.9798 21.0037 20.9245C21.0223 20.9153 21.0503 20.8968 21.0689 20.8876C21.1341 21.0628 21.1993 21.1734 21.2645 21.2379ZM21.6184 21.7264C21.665 21.9016 21.7674 22.1873 21.9444 22.3994C21.8978 22.4178 21.814 22.4639 21.7116 22.4639C21.6743 22.4639 21.6277 22.4547 21.5905 22.4454C21.5625 22.3809 21.5346 22.2703 21.5346 22.132C21.5346 22.0122 21.5532 21.8832 21.6184 21.7264ZM22.289 22.7588C22.289 22.7588 22.2611 22.8142 22.2704 22.9156C22.2704 22.9156 22.0096 22.8695 21.9537 22.7773C21.9537 22.7773 21.9724 23.0169 22.0096 23.2013C22.0096 23.2013 21.665 22.8326 21.6184 22.722C21.6184 22.722 21.6464 23.1829 21.7954 23.441C21.7954 23.441 21.4601 23.2013 21.4787 22.5468C21.516 22.5653 21.5532 22.5837 21.5905 22.5929C21.6091 22.5929 21.6277 22.6021 21.6464 22.6021H21.6557C21.6743 22.6021 21.6929 22.6021 21.7022 22.6021C21.8513 22.6021 21.963 22.5468 22.0189 22.5192C22.0469 22.5192 22.0748 22.5284 22.1028 22.5284C22.2518 22.5284 22.3542 22.4639 22.4101 22.3994C22.4288 22.3717 22.4474 22.3533 22.4567 22.3348C22.5126 22.344 22.5592 22.344 22.615 22.344C22.8386 22.344 22.9876 22.2519 23.0901 22.1689C23.1553 22.1136 23.1925 22.0491 23.2112 22.0214C23.593 21.9292 23.6955 21.6251 23.6955 21.6158V21.6066V21.5974C23.6396 20.7494 23.2484 20.3806 23.2391 20.3806L23.2298 20.3714H23.2112C23.0342 20.3346 22.8665 20.3161 22.6989 20.3161C22.6616 20.3161 22.6244 20.3161 22.5778 20.3161C22.5685 20.3161 22.5592 20.3161 22.5498 20.3161C22.5126 20.3161 22.4753 20.3253 22.4381 20.3253C22.4008 20.3253 22.3636 20.3346 22.3263 20.3346C22.317 20.3346 22.3077 20.3346 22.2984 20.3346C22.2611 20.3438 22.2238 20.3438 22.1866 20.353C22.1493 20.3622 22.1121 20.3714 22.0748 20.3714C22.0655 20.3714 22.0562 20.3714 22.0469 20.3806C22.0096 20.3899 21.9817 20.3991 21.9444 20.4083C21.9072 20.4175 21.8792 20.4267 21.842 20.436C21.8327 20.436 21.8233 20.4452 21.814 20.4452C21.7768 20.4544 21.7488 20.4636 21.7209 20.4728C21.6929 20.482 21.6557 20.4913 21.6277 20.5097C21.6184 20.5097 21.6091 20.5189 21.5998 20.5189C21.5719 20.5281 21.5439 20.5373 21.5067 20.5558C21.4787 20.565 21.4508 20.5834 21.4228 20.5927C21.4135 20.5927 21.4135 20.6019 21.4042 20.6019C21.3762 20.6111 21.3483 20.6203 21.3204 20.6387C21.2924 20.648 21.2645 20.6664 21.2458 20.6756C21.2365 20.6756 21.2365 20.6848 21.2272 20.6848C21.2086 20.6941 21.1806 20.7033 21.162 20.7217C21.1434 20.7309 21.1155 20.7401 21.0968 20.7586C21.0875 20.7586 21.0875 20.7678 21.0782 20.7678C21.0596 20.777 21.0409 20.7862 21.0223 20.7954C21.0223 20.7954 21.0223 20.7954 21.013 20.7954C20.9012 20.86 20.8267 20.9061 20.7895 20.9337L20.51 20.8968C20.4914 20.8692 20.4821 20.8415 20.4635 20.8047C20.4635 20.7954 20.4541 20.7954 20.4541 20.7862C20.4355 20.7586 20.4262 20.7309 20.4076 20.7033C20.4076 20.6941 20.3983 20.6941 20.3983 20.6848C20.3796 20.6572 20.361 20.6295 20.3424 20.6111C20.3237 20.5834 20.3051 20.5558 20.2865 20.5373L20.2772 20.5281C20.2585 20.5005 20.2399 20.482 20.2213 20.4544C20.2213 20.4544 20.2213 20.4452 20.212 20.4452C20.1933 20.4267 20.1747 20.3991 20.1468 20.3806C20.1281 20.3622 20.1002 20.3346 20.0816 20.3161L20.0723 20.3069C20.0536 20.2885 20.0257 20.27 20.0071 20.2424L20.1188 20.2055C20.2679 19.7446 20.7522 19.7262 20.7522 19.7262C20.6963 19.3759 20.836 19.0994 20.836 19.0994L20.5752 19.3206C19.9325 19.3759 19.5693 19.5787 19.3644 19.7631C19.3178 19.7077 19.2899 19.6524 19.2805 19.5971V19.5879C19.2805 19.5787 19.2805 19.5695 19.2805 19.5695C19.2805 19.5603 19.2805 19.5603 19.2805 19.551C19.2805 19.5418 19.2805 19.5418 19.2805 19.5326C19.2805 19.5234 19.2805 19.505 19.2805 19.4957C19.2805 19.4036 19.3085 19.3298 19.3457 19.2745C19.3644 19.2469 19.3737 19.2192 19.3923 19.21C19.4016 19.1915 19.4109 19.1915 19.4109 19.1915L19.4203 19.1823V19.1731C19.5693 18.8044 19.9325 18.2605 20.2585 17.8181C20.5845 17.3756 20.8826 17.0346 20.8826 17.0346L20.9012 17.0161L20.8919 16.9885C20.8733 16.8963 20.8733 16.8133 20.8733 16.7396C20.8733 16.3709 21.0223 16.1128 21.162 15.9376C21.2365 15.8547 21.3111 15.7902 21.3576 15.7533C21.3856 15.7349 21.4042 15.7164 21.4228 15.7072C21.4415 15.698 21.4415 15.698 21.4415 15.698L21.4787 15.6795L21.4508 15.274C21.6743 14.8868 21.8606 14.4259 21.8978 14.3061C21.9351 14.2877 21.9724 14.2692 22.0096 14.2508C22.0189 14.2416 22.0282 14.2416 22.0469 14.2323C22.0748 14.2231 22.0934 14.2047 22.1214 14.1955C22.1307 14.1863 22.1493 14.177 22.1587 14.177C22.1773 14.1678 22.1959 14.1494 22.2238 14.1402C22.2332 14.1309 22.2425 14.1217 22.2611 14.1217C22.2797 14.1125 22.2984 14.0941 22.317 14.0849C22.3263 14.0756 22.3356 14.0756 22.3449 14.0664C22.3636 14.0572 22.3822 14.0388 22.4008 14.0296C22.4101 14.0203 22.4101 14.0203 22.4194 14.0203C22.466 13.9927 22.5033 13.965 22.5312 13.9374L22.5685 13.9742C22.5498 14.0572 22.5405 14.1402 22.5405 14.2231C22.3915 14.2969 22.2238 14.3706 22.0469 14.4351L21.7768 14.9606C21.7768 14.9606 22.1214 14.9329 22.2238 15.4122C22.2238 15.4122 22.4381 15.1265 22.7734 14.9513C22.792 14.9698 22.8013 14.9882 22.82 15.0159C22.6709 15.1173 22.5219 15.274 22.4567 15.486L22.5871 15.5413C22.5871 15.5413 22.82 15.3661 23.0808 15.2555C23.1273 15.2924 23.1832 15.3201 23.2391 15.3477C23.0714 15.4307 22.8945 15.5505 22.8293 15.6427L22.8945 15.6703C22.8945 15.6703 23.2857 15.4583 23.3602 15.8639C23.4347 16.2695 22.9876 16.3432 22.8572 16.3432C22.8572 16.3432 22.8758 16.4999 23.0342 16.6474C23.0342 16.6474 22.6896 16.9147 22.1959 16.6474C21.7022 16.3801 21.5346 16.4078 21.1155 16.5092C21.1155 16.5092 20.9664 16.7212 21.0503 16.97C20.9571 17.0622 20.9012 17.053 20.7988 17.3203C20.7522 17.4955 20.5659 17.6245 20.5659 17.6245C20.5659 17.6245 21.0689 17.6706 21.488 17.2189C21.488 17.2189 21.8047 17.56 22.2797 16.9793C22.2797 16.9793 22.6523 17.3019 23.2577 16.9332C23.2577 16.9332 22.969 17.2374 22.466 17.2281C22.466 17.2281 22.7082 17.4494 22.8013 17.6798C22.8013 17.6798 22.615 17.5139 22.168 17.4678C22.168 17.4678 22.2238 17.7904 22.4288 17.984C22.4288 17.984 22.168 17.772 21.6929 17.855C21.6929 17.855 22.1121 18.4449 22.7454 18.5002C22.7454 18.5002 22.5033 18.5832 22.3822 18.7122C22.3822 18.7122 22.6244 18.8689 23.0062 18.7399C23.0062 18.7399 22.615 18.9519 22.4474 19.0164C22.4474 19.0164 22.7082 19.0994 23.267 18.9334C23.267 18.9611 23.267 18.9888 23.267 19.0072C23.267 19.0256 23.267 19.0533 23.267 19.0717C23.2577 19.1731 23.2391 19.3022 23.1646 19.4312C23.1646 19.4312 22.9038 19.21 22.643 19.1547C22.643 19.1547 22.9504 19.5603 22.7734 20.0211C22.7734 20.0211 22.8852 20.1871 23.3043 20.1686C23.3416 20.1686 23.3695 20.1686 23.3881 20.1686C23.5185 20.7125 23.7328 21.2287 24.0215 21.6988C23.9284 21.7265 23.8445 21.7541 23.7886 21.7633L24.0494 21.9016C24.0494 21.9016 23.6303 22.0399 23.444 22.0675C23.444 22.0675 23.5465 22.1689 23.6303 22.2242C23.6303 22.2242 23.1273 22.4454 22.9224 22.4362C22.9224 22.4362 23.0342 22.5468 23.0994 22.5653C23.0994 22.5653 22.7641 22.6482 22.6616 22.5929L22.6337 22.8142C22.6523 22.8326 22.3636 22.8602 22.289 22.7588ZM22.7268 20.7033C22.7734 20.6572 22.8852 20.648 22.9317 20.6848C23.0435 20.7678 22.9597 20.8415 22.8758 21.0075C22.7361 21.2656 22.9224 21.4407 22.7827 21.708C22.643 21.9661 22.4753 22.0399 22.4101 21.9938C22.317 21.9292 22.4567 21.7818 22.5033 21.6711C22.5964 21.413 22.3729 21.0628 22.7268 20.7033ZM21.8792 16.8133C21.8792 16.8133 21.8885 16.8133 21.8978 16.8041C21.9258 16.8133 21.9537 16.8226 21.9724 16.8318C22.0096 17.1175 21.9537 17.2558 21.8327 17.2927C21.7023 17.3295 21.4694 17.1821 21.4042 16.841C21.4321 16.8318 21.4694 16.8226 21.4973 16.8133C21.5439 16.9424 21.6371 17.1544 21.7675 17.2281C21.7675 17.2281 21.7954 17.2097 21.7954 17.1821C21.7768 17.0807 21.7488 16.8686 21.8792 16.8133ZM34.8074 24.8052C34.7981 24.8236 34.7702 24.8513 34.7609 24.8605C33.3358 26.2893 31.3891 27.082 29.3865 27.2295C29.3586 27.589 29.0512 27.8655 28.6786 27.8655C28.3061 27.8655 27.9987 27.5798 27.9708 27.2295C25.9682 27.082 24.0308 26.2893 22.6057 24.8605C22.5964 24.8513 22.5685 24.8236 22.5592 24.8052C22.5219 24.7591 22.5126 24.713 22.5126 24.6485C22.5126 24.5563 22.5871 24.4734 22.643 24.4181C22.6989 24.3628 22.7734 24.2982 22.7734 24.2982C22.7734 24.2982 22.8013 24.2614 22.8106 24.2337C22.82 24.1968 22.8106 24.1692 22.8106 24.16C22.792 24.077 22.7734 23.994 22.7734 23.9111C22.7734 23.358 23.2391 22.8971 23.8073 22.8971C23.9004 22.8971 23.9842 22.9063 24.0681 22.9248C24.0867 22.9248 24.096 22.934 24.1426 22.9248C24.1985 22.9156 24.2078 22.8879 24.2264 22.8787C24.2357 22.8695 24.3102 22.7865 24.3848 22.722C24.45 22.6667 24.5152 22.6114 24.6083 22.6114C24.7108 22.6114 24.7853 22.6667 24.8598 22.7404C25.3441 23.229 25.9309 23.6069 26.5643 23.8558C27.2163 24.1231 27.9335 24.2798 28.688 24.2798C29.4424 24.2798 30.1596 24.1323 30.8116 23.865C31.445 23.6161 32.0318 23.2382 32.5254 22.7496C32.5906 22.6759 32.6652 22.6206 32.7769 22.6206C32.8701 22.6206 32.9166 22.6575 33.0005 22.7312C33.0843 22.7957 33.1402 22.8602 33.1588 22.8879C33.1774 22.9063 33.1868 22.9248 33.2426 22.934C33.2799 22.9432 33.3078 22.934 33.3172 22.934C33.401 22.9156 33.4848 22.9063 33.578 22.9063C34.1554 22.9063 34.6118 23.358 34.6118 23.9203C34.6118 24.0033 34.6025 24.0954 34.5746 24.1692C34.5746 24.1784 34.5653 24.2153 34.5746 24.2429C34.5839 24.2706 34.6118 24.3074 34.6118 24.3074C34.6118 24.3074 34.6864 24.3812 34.7422 24.4273C34.7888 24.4734 34.8726 24.5655 34.8726 24.6577C34.854 24.7038 34.8447 24.7591 34.8074 24.8052ZM35.8227 21.8463C35.8693 21.9753 35.8879 22.0859 35.8879 22.1781C35.8879 22.2887 35.8693 22.3809 35.8413 22.4362C35.8413 22.4454 35.832 22.4454 35.832 22.4547L35.7854 22.4731C35.7389 22.4915 35.6457 22.5007 35.6085 22.5007C35.5712 22.5007 35.5246 22.4915 35.4874 22.4823C35.6737 22.3072 35.7761 22.0214 35.8227 21.8463ZM35.5992 22.639C35.6644 22.639 35.7202 22.6298 35.7761 22.6206C35.7948 22.6482 35.8134 22.7035 35.8413 22.7681C35.8786 22.934 35.8134 22.9432 35.7668 22.9616C35.3477 23.1276 35.329 23.6622 35.0869 23.5608C34.7888 23.441 35.1521 22.6575 35.1521 22.6575C35.1521 22.6575 34.5746 22.8602 34.4535 22.7773C34.3324 22.6851 34.556 22.4454 34.556 22.4454C34.556 22.4454 34.053 22.5653 33.9598 22.5007C33.8574 22.4362 34.0344 22.1873 34.0344 22.1873C34.0344 22.1873 33.6897 22.344 33.5407 22.2703C33.3917 22.1873 33.6804 21.9108 33.6804 21.9108C33.6804 21.9108 33.3544 22.0399 33.252 21.9661C33.224 21.9477 33.224 21.92 33.224 21.8832C33.3637 21.6711 33.4848 21.4591 33.5873 21.2287C33.5873 21.2471 33.578 21.2748 33.578 21.2932C33.5686 21.367 33.5593 21.4407 33.5593 21.5052C33.5593 21.6343 33.578 21.7633 33.6618 21.8555C33.7829 21.9845 34.0902 22.1781 34.4628 22.344C34.8447 22.5007 35.2638 22.6298 35.5992 22.639ZM35.0589 22.2519C35.0496 22.2611 34.677 22.1689 34.4721 21.8002C34.2672 21.4315 34.5746 21.3854 34.3324 21.2103C34.0902 21.0443 34.0437 20.8231 34.2486 20.7586C34.351 20.7217 34.4349 20.7401 34.6118 20.8415C34.7795 20.9429 34.7516 21.1089 34.7702 21.5974C34.7888 22.0859 35.0682 22.2426 35.0589 22.2519ZM35.9624 21.284C36.0276 21.2103 36.1114 21.0996 36.1953 20.9337C36.2977 20.9982 36.4095 21.0535 36.5213 21.0812C36.4002 21.1642 36.2232 21.2471 35.9624 21.284ZM38.0954 19.6985C38.0954 19.7077 38.0954 19.717 38.0861 19.7262L37.9184 19.5971L37.8253 19.6801C37.4154 19.339 37.0708 19.422 37.0708 19.422L36.661 19.6801C37.2198 19.717 37.3409 20.0949 37.3502 20.4083C37.313 20.4452 37.2664 20.4728 37.2292 20.5097L37.2198 20.5189C37.1826 20.5558 37.1453 20.5834 37.1081 20.6203L37.0988 20.6295C37.0615 20.6664 37.0242 20.6941 36.987 20.7309C36.9777 20.7401 36.9683 20.7494 36.9683 20.7494C36.9311 20.7862 36.8938 20.8231 36.8659 20.86C36.8007 20.9337 36.7262 20.9614 36.6423 20.9614C36.5213 20.9614 36.3722 20.8968 36.2325 20.8047C36.1953 20.7862 36.1673 20.7586 36.1301 20.7401C35.9531 20.6203 35.8134 20.4913 35.7016 20.4452C35.5805 20.3991 35.2825 20.3253 34.9192 20.3253C34.9006 20.3253 34.8726 20.3253 34.854 20.3253C34.8447 20.3253 34.8354 20.3253 34.8168 20.3253C34.8074 20.3253 34.7888 20.3253 34.7795 20.3253C34.7609 20.3253 34.7516 20.3253 34.7329 20.3253C34.7236 20.3253 34.7143 20.3253 34.705 20.3253C34.6863 20.3253 34.6677 20.3253 34.6491 20.3346C34.6398 20.3346 34.6398 20.3346 34.6305 20.3346C34.6118 20.3346 34.5932 20.3438 34.5746 20.3438H34.5653C34.5466 20.3438 34.5187 20.353 34.5001 20.353C34.2579 20.3991 34.0157 20.482 33.8015 20.6387C33.8294 20.565 33.8481 20.4913 33.8667 20.4175C34.1648 20.2792 34.6491 20.1318 35.329 20.1963C35.329 20.1963 34.9099 20.0672 34.2765 20.1041L34.1648 19.9751C34.1648 19.9751 34.0623 20.0211 33.9319 20.1225C33.9412 20.0672 33.9598 20.0119 33.9692 19.9566C34.1275 19.8552 34.2952 19.8184 34.2952 19.8184L34.4162 19.4496C34.379 19.4496 34.2486 19.3851 34.053 19.2837C34.053 19.2192 34.0623 19.1547 34.0623 19.0809C34.3324 19.1915 34.556 19.2929 34.6398 19.3298C34.6398 19.3298 34.556 19.0625 35.0496 18.998C35.0496 18.998 34.5839 18.9242 34.0623 18.8228C34.0623 18.786 34.0623 18.7491 34.053 18.7122C34.7143 18.7952 35.3756 18.7675 35.7854 18.4726C35.7854 18.4726 35.4315 18.5463 35.031 18.5186C35.031 18.5186 35.4129 18.408 35.7202 18.0485C35.7202 18.0485 35.3663 18.2237 34.8354 18.1776C34.8354 18.1776 35.3663 17.9195 35.5246 17.689C35.5246 17.689 34.8913 17.9287 34.4535 17.9287C34.4535 17.9287 34.8633 17.772 35.0403 17.5969L34.5001 17.6429L34.6491 17.4309C34.6491 17.4309 33.9412 17.2281 33.7922 16.6566L34.053 16.6843C34.053 16.6843 33.8388 15.9192 34.3045 15.698C34.2486 15.6427 33.8294 15.5228 33.8294 15.5228C33.8294 15.5228 34.3138 15.4952 34.5373 15.5782C34.5373 15.5782 34.5001 15.5044 34.3883 15.4214C34.2765 15.3477 34.1368 15.2924 34.1368 15.2924C34.1368 15.2924 34.677 15.2647 34.8447 15.4214C34.8447 15.4214 34.6864 15.1357 34.5466 15.0343C34.5466 15.0343 34.8726 15.1357 35.0589 15.3477L35.1893 15.3293C35.1893 15.3293 35.1614 15.0251 35.0124 14.7854C35.0124 14.7854 35.3104 14.9974 35.4408 15.3385C35.4408 15.3385 35.5433 15.4768 35.832 15.4491L35.8227 15.4675L35.832 15.486C35.832 15.486 35.8786 15.5874 35.9438 15.7072C36.009 15.8178 36.0928 15.9469 36.2046 16.0206C36.2232 16.0575 36.2512 16.1497 36.307 16.2418C36.3722 16.3617 36.4654 16.4999 36.6051 16.5829V16.5921C36.6051 16.6659 36.6051 16.8133 36.6237 16.9608C36.6423 17.1083 36.6703 17.265 36.7541 17.3572C36.8938 17.5231 37.4899 18.3896 37.9184 19.1823C38.0115 19.3482 38.0674 19.4957 38.0581 19.6063C38.1047 19.6801 38.1047 19.6893 38.0954 19.6985ZM28.6786 14.6103C26.1638 14.6103 24.124 16.5921 24.124 19.0348C24.124 21.4776 26.1638 23.4594 28.6786 23.4594C31.1935 23.4594 33.2333 21.4776 33.2333 19.0348C33.2333 16.5921 31.1935 14.6103 28.6786 14.6103ZM31.3053 21.6435H26.8158V21.0628H27.0207C27.2442 21.0628 27.4119 20.8876 27.4119 20.6756V16.9332C27.4119 16.7212 27.2349 16.546 27.0114 16.546H26.8251V16.1036H29.4331V16.546H29.2282C29.0046 16.546 28.8277 16.7212 28.8277 16.9332V20.9337H30.1317C30.3086 20.9337 30.467 20.7678 30.4577 20.5927C30.4484 20.5373 30.4484 20.4636 30.4484 20.4083C30.4484 20.0765 30.644 19.7815 30.942 19.634L31.2401 19.9198C31.091 20.058 30.9886 20.2516 30.9886 20.4728C30.9886 20.7309 31.119 20.9522 31.3239 21.0904L31.3053 21.6435ZM20.6777 20.27C20.6777 20.27 20.538 20.3806 20.5473 20.4267C20.5659 20.5189 20.6684 20.4544 20.6963 20.4267C21.1713 19.9566 22.0282 19.6524 22.0189 19.6063C22.0189 19.5603 21.2831 19.7631 20.6777 20.27ZM33.6432 24.6024L32.7583 23.5792L32.6 23.7083L33.6059 24.8697L34.0344 24.5287L33.9226 24.3996L33.6432 24.6024ZM28.5948 25.008L28.2874 26.5289H28.4924L28.5482 26.234L28.8556 26.2248L28.9208 26.5197H29.1257L28.7625 25.0172L28.5948 25.008ZM28.809 26.0681H28.5576L28.6693 25.303L28.7532 25.8468L28.809 26.0681ZM29.6753 24.9343L28.9953 25.0172L29.014 25.1924L29.2561 25.1647L29.4238 26.4921L29.6287 26.4644L29.461 25.1371L29.6939 25.1094L29.6753 24.9343ZM28.6786 26.741C28.4365 26.741 28.2409 26.9253 28.2409 27.165C28.2409 27.3954 28.4365 27.589 28.6786 27.589C28.9208 27.589 29.1164 27.4046 29.1164 27.165C29.1164 26.9345 28.9208 26.741 28.6786 26.741ZM28.6786 27.4968C28.4924 27.4968 28.334 27.3493 28.334 27.165C28.334 26.9806 28.483 26.8331 28.6786 26.8331C28.8649 26.8331 29.0233 26.9806 29.0233 27.165C29.0233 27.3493 28.8742 27.4968 28.6786 27.4968ZM30.5788 24.713C30.1969 24.8329 30.3552 25.3122 30.439 25.5703C30.5229 25.8284 30.6905 26.3077 31.0724 26.1879C31.4543 26.0681 31.296 25.5887 31.2121 25.3306C31.1283 25.0633 30.9606 24.5932 30.5788 24.713ZM31.0165 26.0035C30.8582 26.0496 30.7557 25.81 30.6533 25.4965C30.5508 25.1924 30.4856 24.9343 30.644 24.879C30.8023 24.8329 30.9048 25.0725 31.0072 25.3859C31.1004 25.6993 31.1656 25.9574 31.0165 26.0035ZM21.5905 18.0024C21.5532 18.7952 22.2332 18.5279 22.2332 18.5279C21.7954 18.3896 21.5905 18.0024 21.5905 18.0024ZM32.1156 24.0401L32.6838 25.4873L32.8514 25.3767L32.7304 25.1002L32.9912 24.9343L33.2054 25.1555L33.3824 25.0449L32.2553 23.9572L32.1156 24.0401ZM32.3485 24.2429L32.721 24.6577L32.8794 24.8144L32.6745 24.9435L32.3485 24.2429ZM29.8336 24.9066L30.1317 26.3907L30.3366 26.3538L30.0385 24.8697L29.8336 24.9066ZM28.7718 27.1742C28.8184 27.1558 28.8556 27.1097 28.8556 27.0451C28.8556 26.953 28.7904 26.8977 28.6693 26.8977C28.6228 26.8977 28.5762 26.9069 28.5296 26.9253H28.5203V27.3954H28.6134V27.2018H28.6414C28.6693 27.2018 28.688 27.2111 28.6973 27.2387L28.7718 27.3954H28.8742L28.7811 27.2111C28.7997 27.2018 28.7904 27.1834 28.7718 27.1742ZM28.66 27.1189H28.6228V26.9898C28.6321 26.9898 28.66 26.9806 28.6693 26.9806C28.7345 26.9806 28.7532 27.0083 28.7532 27.0451C28.7625 27.1005 28.7345 27.1189 28.66 27.1189ZM35.3197 19.2192C35.3104 19.2561 35.4967 19.2929 35.7389 19.4312C35.9717 19.5695 36.2418 19.7999 36.5492 20.0672C36.5772 20.0857 36.5492 20.1318 36.5399 20.1225C35.7202 19.505 34.9192 19.4128 34.9285 19.5142C34.9285 19.551 35.1148 19.5603 35.3384 19.634C35.6737 19.7538 36.1207 19.9843 36.4561 20.2147C36.484 20.2332 36.4561 20.2516 36.4374 20.2516C35.4967 19.929 34.6398 19.7446 34.6491 19.8552C34.6584 19.9013 34.9192 19.9105 35.2545 19.9935C35.7109 20.1133 36.307 20.3438 36.6982 20.482C36.7076 20.482 36.7634 20.5005 36.8752 20.3991C36.9683 20.3161 36.9497 20.27 36.9497 20.27C36.0742 19.3482 35.3383 19.1178 35.3197 19.2192ZM24.4313 23.4318L23.3881 24.5563L23.5372 24.6946L24.5804 23.57L24.4313 23.4318ZM25.1578 23.9848L24.8412 24.4273L24.5245 24.9527H24.5152L24.897 23.8097L24.7387 23.6991L23.8445 24.9343L24.0122 25.0449L24.3382 24.5932L24.6083 24.16L24.6549 24.077H24.6642L24.273 25.2292L24.4313 25.3398L25.3255 24.1047L25.1578 23.9848ZM22.4753 19.6432C22.3542 19.2745 22.0655 19.1823 22.0655 19.1823C22.3822 19.7723 22.1587 20.1686 22.1587 20.1686C22.1587 20.1686 22.494 20.2055 22.7082 20.0396C22.8758 19.551 22.494 19.1362 22.494 19.1362C22.5405 19.3575 22.4753 19.6432 22.4753 19.6432ZM27.9335 25.515L27.8962 26.1234H27.8869L27.6913 24.9343L27.4957 24.9066L27.2815 26.3999L27.4864 26.4275L27.5702 25.8745L27.6168 25.3675V25.2661H27.6261L27.8217 26.4644L28.008 26.4921L28.2222 24.9988L28.0173 24.9711L27.9335 25.515ZM26.9555 24.7776L26.7133 24.713L26.3128 26.1694L26.5084 26.2248L26.704 25.5058L26.7785 26.2893L26.9834 26.3446L26.8996 25.5611C27.0766 25.5795 27.1697 25.3767 27.207 25.2384C27.3281 24.8882 27.1045 24.8236 26.9555 24.7776ZM27.0021 25.2384C26.9648 25.3859 26.881 25.4689 26.7413 25.4136L26.8717 24.9343L26.8996 24.9435C27.058 24.9803 27.0393 25.1002 27.0021 25.2384ZM26.2569 25.432L26.3221 25.2661L26.0334 25.1555L26.2197 24.713L26.5457 24.8421L26.6109 24.6762L26.0986 24.4734L25.5118 25.8745L26.0241 26.0773L26.0893 25.9114L25.7633 25.7823L25.9589 25.303L26.2569 25.432ZM25.9123 24.6024L25.9961 24.4457L25.3907 24.1323L25.3069 24.289L25.5211 24.3996L24.8784 25.5795L25.0647 25.6717L25.7074 24.4918L25.9123 24.6024Z" fill="#004E95"/>
</g>
<defs>
<clipPath id="clip0_1124_996">
<rect width="58" height="68" fill="white"/>
</clipPath>
</defs>
</svg>
